<svg width="50" height="50" viewBox="0 0 50 50" fill="none" xmlns="http://www.w3.org/2000/svg">
<path d="M2.52134 26.8674C2.57037 26.8671 2.57037 26.8671 2.62039 26.8668C2.72908 26.8663 2.83776 26.8663 2.94645 26.8663C3.02473 26.866 3.10301 26.8657 3.18129 26.8654C3.39339 26.8647 3.60549 26.8644 3.81759 26.8642C3.95032 26.8641 4.08304 26.8639 4.21576 26.8636C4.58407 26.863 4.95237 26.8624 5.32068 26.8623C5.35596 26.8623 5.35596 26.8623 5.39196 26.8623C5.43963 26.8623 5.4873 26.8623 5.53497 26.8623C5.57047 26.8623 5.57047 26.8623 5.60667 26.8622C5.63037 26.8622 5.65406 26.8622 5.67846 26.8622C6.06191 26.8621 6.44535 26.8612 6.8288 26.8599C7.22356 26.8586 7.61832 26.858 8.01308 26.858C8.23429 26.858 8.45549 26.8577 8.6767 26.8567C8.88496 26.8558 9.09321 26.8557 9.30148 26.8563C9.37753 26.8563 9.45359 26.8561 9.52964 26.8556C10.381 26.8499 11.0271 27.0633 11.6578 27.6743C12.0664 28.1056 12.3506 28.7334 12.3442 29.3414C12.3711 29.3414 12.398 29.3414 12.4257 29.3413C13.0907 29.3406 13.7557 29.34 14.4207 29.3397C14.7424 29.3395 15.064 29.3393 15.3857 29.3389C17.842 29.336 17.842 29.336 18.9192 29.3505C19.0005 29.3515 19.0817 29.3525 19.163 29.3532C20.0984 29.3627 21.0164 29.4876 21.932 29.6812C21.9562 29.6863 21.9804 29.6913 22.0054 29.6966C22.1526 29.7289 22.2928 29.7725 22.4351 29.823C22.5488 29.862 22.6645 29.8924 22.7803 29.9239C23.0046 29.9866 23.2248 30.0581 23.4442 30.137C23.4707 30.1465 23.4972 30.156 23.5245 30.1657C23.7034 30.2312 23.8762 30.3068 24.0487 30.3881C24.231 30.4712 24.4163 30.5437 24.6032 30.615C24.6993 30.6561 24.7795 30.7041 24.8683 30.7596C24.9817 30.8194 25.0962 30.8768 25.2105 30.9347C25.6202 31.1444 26.0115 31.376 26.4011 31.6227C26.4294 31.6406 26.4577 31.6585 26.4869 31.6769C26.6846 31.8032 26.8752 31.9379 27.065 32.0764C27.1017 32.1024 27.1384 32.1283 27.1752 32.1541C27.4107 32.3194 27.6383 32.4927 27.8626 32.6737C27.9187 32.7189 27.9749 32.7639 28.0313 32.8088C28.0698 32.8397 28.1084 32.8706 28.1469 32.9015C28.2004 32.9444 28.2539 32.9873 28.3077 33.0298C28.3764 33.0893 28.3764 33.0893 28.4616 33.1793C28.7017 33.4261 28.8871 33.5077 29.2251 33.508C29.2785 33.5068 29.332 33.5056 29.3855 33.5044C29.4429 33.5045 29.5004 33.5047 29.5578 33.5051C29.7127 33.5056 29.8675 33.504 30.0224 33.5019C30.1852 33.5001 30.348 33.5006 30.5108 33.5008C30.8192 33.5009 31.1274 33.4992 31.4357 33.4968C31.9873 33.4925 32.5389 33.4917 33.0905 33.491C33.2837 33.4907 33.4769 33.4897 33.6701 33.4881C33.7907 33.4872 33.9114 33.4867 34.032 33.4862C34.0875 33.4859 34.1429 33.4855 34.1984 33.4848C34.5353 33.4808 34.8354 33.5061 35.163 33.5958C35.2016 33.606 35.2016 33.606 35.2409 33.6164C35.9739 33.8244 36.6201 34.3599 37.0026 35.0337C37.3445 35.6696 37.4576 36.25 37.4252 36.9723C37.4472 36.9613 37.4692 36.9503 37.4919 36.9389C37.9286 36.721 38.3661 36.5051 38.8063 36.2949C38.8441 36.2768 38.882 36.2587 38.9209 36.2401C39.0701 36.169 39.2194 36.0981 39.37 36.03C39.5715 35.9383 39.7703 35.8403 39.9696 35.7434C40.3449 35.5608 40.7206 35.3792 41.0972 35.1996C41.4366 35.0378 41.7753 34.8743 42.1136 34.71C42.5674 34.4897 43.0221 34.2713 43.4773 34.0542C43.6676 33.9634 43.8578 33.8725 44.0479 33.7815C44.1237 33.7453 44.1995 33.709 44.2752 33.6728C44.4146 33.6062 44.554 33.5395 44.6933 33.4728C44.7759 33.4333 44.8586 33.3937 44.9412 33.3542C44.9986 33.3267 45.0561 33.2992 45.1135 33.2717C45.2823 33.1909 45.4512 33.1104 45.6205 33.0306C45.648 33.0176 45.6756 33.0047 45.704 32.9913C46.1108 32.8067 46.4892 32.74 46.9331 32.7432C46.9691 32.743 47.0051 32.7427 47.0422 32.7424C47.8905 32.7445 48.5806 33.1533 49.1871 33.7372C49.7446 34.3306 50.0054 35.1708 49.9999 35.9843C49.9894 36.3065 49.9181 36.6007 49.8182 36.9047C49.8074 36.939 49.8074 36.939 49.7964 36.9739C49.5833 37.6383 49.1227 38.1639 48.5723 38.5592C48.5336 38.5875 48.5336 38.5875 48.4941 38.6163C48.4424 38.6538 48.3906 38.6911 48.3386 38.7282C48.2419 38.7974 48.1457 38.8674 48.0496 38.9375C47.8253 39.1012 47.6 39.2632 47.3731 39.4231C47.2145 39.5351 47.0565 39.6481 46.8987 39.7615C46.5924 39.9816 46.285 40.2 45.9761 40.4163C45.9433 40.4393 45.9104 40.4623 45.8766 40.486C45.6503 40.6441 45.4231 40.8006 45.1954 40.9565C45.1537 40.9852 45.1119 41.0138 45.0702 41.0425C45.0136 41.0813 44.957 41.1202 44.9004 41.159C44.7882 41.236 44.6761 41.3131 44.5642 41.3903C43.4667 42.1465 42.349 42.8711 41.2284 43.5901C41.1995 43.6086 41.1707 43.6271 41.1411 43.6462C39.7939 44.5101 39.7939 44.5101 39.221 44.8361C39.0755 44.919 38.9317 45.0047 38.7879 45.0906C38.7481 45.1143 38.7481 45.1143 38.7076 45.1385C38.5861 45.211 38.4649 45.2839 38.3444 45.358C37.9295 45.6128 37.5063 45.8516 37.0827 46.0905C36.9753 46.1511 36.8681 46.2119 36.7608 46.2727C36.4763 46.4337 36.1915 46.5917 35.9001 46.7391C35.7944 46.7934 35.6901 46.8497 35.5858 46.9068C34.8934 47.2863 34.1929 47.6482 33.4738 47.9712C33.2874 48.0552 33.1081 48.1432 32.9316 48.2475C32.8444 48.2968 32.7545 48.3329 32.6611 48.3679C32.524 48.4204 32.3881 48.4742 32.2533 48.5325C32.2212 48.5463 32.1891 48.5602 32.156 48.5745C32.1205 48.5899 32.085 48.6053 32.0484 48.6211C31.9583 48.66 31.8681 48.6986 31.7779 48.7372C31.7573 48.7461 31.7366 48.755 31.7153 48.7642C31.3017 48.9406 30.8798 49.0938 30.455 49.2391C30.3806 49.2647 30.3063 49.2904 30.232 49.3162C29.8897 49.4342 29.5447 49.5379 29.196 49.634C29.1734 49.6403 29.1508 49.6466 29.1275 49.6531C28.7285 49.7639 28.3254 49.8378 27.9174 49.9041C27.8934 49.9082 27.8694 49.9124 27.8446 49.9166C27.2656 50.0136 26.6127 50.048 26.0412 49.9012C25.9103 49.8686 25.7798 49.8457 25.647 49.8236C25.101 49.732 24.581 49.5816 24.0528 49.4146C24.0135 49.4021 23.9741 49.3897 23.9336 49.3769C23.7058 49.3038 23.4831 49.2223 23.261 49.1325C23.1295 49.0803 22.9964 49.0349 22.8623 48.9904C22.6533 48.9198 22.4481 48.8445 22.2455 48.7561C22.1799 48.728 22.1144 48.6999 22.0488 48.6717C22.0157 48.6575 21.9825 48.6432 21.9484 48.6285C21.8619 48.5915 21.7752 48.5554 21.6881 48.5198C21.1753 48.3092 21.1753 48.3092 20.9332 48.1807C20.8616 48.1449 20.789 48.1149 20.7148 48.0851C20.4095 47.9618 20.1151 47.8139 19.8241 47.6585C19.7408 47.6178 19.6584 47.5821 19.5727 47.5475C19.3623 47.462 19.1576 47.3645 18.9526 47.2663C18.9325 47.2567 18.9124 47.2471 18.8917 47.2372C18.5621 47.0794 18.2395 46.9106 17.9194 46.7333C17.8166 46.677 17.7126 46.6232 17.6084 46.5699C17.5882 46.5595 17.5679 46.5491 17.5471 46.5385C17.4391 46.4832 17.331 46.4281 17.2229 46.373C16.3912 45.9494 16.3912 45.9494 16.0483 45.7412C15.9464 45.681 15.843 45.6271 15.7376 45.5738C15.4095 45.4075 15.0905 45.2239 14.7704 45.042C14.7318 45.0201 14.7318 45.0201 14.6925 44.9978C14.5214 44.9006 14.3507 44.8027 14.1802 44.7044C14.1503 44.6871 14.1203 44.6698 14.0894 44.652C13.7631 44.4636 13.4375 44.2747 13.1181 44.0741C12.8437 43.9031 12.5605 43.7476 12.2787 43.5901C12.2744 43.6106 12.2701 43.631 12.2657 43.6521C12.26 43.6791 12.2542 43.7062 12.2483 43.734C12.2427 43.7608 12.2371 43.7875 12.2313 43.815C12.1429 44.1999 11.9207 44.5881 11.6558 44.8732C11.6341 44.8732 11.6125 44.8732 11.5902 44.8732C11.5826 44.8928 11.575 44.9125 11.5671 44.9327C11.3531 45.3131 10.7616 45.5122 10.3669 45.6272C10.0258 45.717 9.6815 45.7066 9.33177 45.7043C9.2548 45.7044 9.17783 45.7046 9.10086 45.7049C8.89359 45.7054 8.68633 45.7048 8.47906 45.704C8.28347 45.7034 8.08788 45.7035 7.89229 45.7036C7.5049 45.7037 7.11751 45.703 6.73012 45.7019C6.3552 45.7007 5.98028 45.7003 5.60535 45.7005C5.19564 45.7007 4.78592 45.7006 4.3762 45.7C4.3545 45.6999 4.3328 45.6999 4.31044 45.6998C4.27802 45.6998 4.27802 45.6998 4.24494 45.6997C4.07232 45.6995 3.89969 45.6994 3.72707 45.6994C3.52378 45.6995 3.3205 45.699 3.11722 45.6981C3.04284 45.6979 2.96846 45.6978 2.89408 45.6979C2.17853 45.6988 2.17853 45.6988 1.85286 45.5823C1.8213 45.5718 1.78973 45.5613 1.75721 45.5505C1.22971 45.3714 0.794688 45.0382 0.475865 44.5693C0.449747 44.5311 0.449747 44.5311 0.423101 44.492C0.317169 44.3239 0.24187 44.1481 0.172598 43.9616C0.164521 43.9399 0.156443 43.9183 0.148121 43.8961C0.017305 43.5271 0.00732429 43.1669 0.00809913 42.7787C0.0079765 42.7203 0.00782551 42.6619 0.00764889 42.6035C0.00724902 42.4437 0.00725652 42.2839 0.00733397 42.1241C0.00734738 41.9515 0.00698504 41.7789 0.00667437 41.6063C0.00613035 41.2683 0.00594955 40.9304 0.00591296 40.5924C0.00588177 40.3176 0.00574696 40.0427 0.00553926 39.7679C0.00496195 38.988 0.00465912 38.2082 0.00470831 37.4283C0.00471093 37.3863 0.00471362 37.3443 0.00471632 37.301C0.004719 37.2589 0.00472156 37.2169 0.00472432 37.1735C0.00475096 36.492 0.00412377 35.8106 0.003199 35.1291C0.00225616 34.4288 0.00180444 33.7284 0.00186103 33.0281C0.00188277 32.6352 0.00170396 32.2422 0.000996821 31.8493C0.000398479 31.5147 0.000258279 31.18 0.000702413 30.8454C0.000915867 30.6749 0.000922684 30.5043 0.000351474 30.3338C-0.000167216 30.1773 -6.73406e-05 30.0208 0.000501305 29.8643C0.000601309 29.8081 0.000485388 29.7518 0.000117099 29.6955C-0.00278402 29.2205 0.047122 28.7357 0.273004 28.3116C0.284378 28.2894 0.295752 28.2671 0.307471 28.2442C0.401264 28.0654 0.506641 27.905 0.639793 27.7545C0.663249 27.7272 0.686705 27.7 0.710871 27.6719C1.19142 27.1439 1.81928 26.8654 2.52134 26.8674ZM1.44073 28.638C1.18304 28.9781 1.18282 29.3341 1.18422 29.7446C1.18406 29.803 1.18385 29.8615 1.18361 29.9199C1.18308 30.0801 1.18315 30.2402 1.18333 30.4004C1.18342 30.5733 1.18294 30.7462 1.18254 30.9191C1.18185 31.2577 1.1817 31.5962 1.18176 31.9348C1.1818 32.2101 1.18168 32.4853 1.18143 32.7606C1.18136 32.8399 1.1813 32.9192 1.18123 32.9986C1.18119 33.038 1.18116 33.0775 1.18112 33.1182C1.1805 33.8648 1.18054 34.6114 1.18076 35.3579C1.18094 36.0406 1.18026 36.7232 1.17918 37.4059C1.17807 38.1071 1.17757 38.8084 1.17772 39.5096C1.1778 39.9032 1.17763 40.2968 1.17681 40.6904C1.17612 41.0255 1.176 41.3606 1.17662 41.6957C1.17692 41.8665 1.17696 42.0374 1.17628 42.2083C1.17567 42.3649 1.17582 42.5215 1.17656 42.6782C1.1767 42.7346 1.17656 42.7911 1.17612 42.8475C1.17272 43.3084 1.24894 43.6963 1.54998 44.0553C1.80535 44.3165 2.09029 44.478 2.45263 44.4817C2.48239 44.4815 2.51214 44.4813 2.5428 44.4811C2.59119 44.4814 2.59119 44.4814 2.64055 44.4817C2.74817 44.4822 2.85577 44.4819 2.96339 44.4817C3.04074 44.4819 3.11809 44.4821 3.19545 44.4824C3.40523 44.483 3.61502 44.4829 3.82481 44.4827C3.95594 44.4826 4.08706 44.4827 4.21819 44.4829C4.25089 44.4829 4.25089 44.4829 4.28425 44.483C4.32854 44.483 4.37283 44.4831 4.41712 44.4831C4.83208 44.4836 5.24703 44.4834 5.66199 44.483C6.04114 44.4827 6.42029 44.4831 6.79944 44.4839C7.18927 44.4848 7.5791 44.4851 7.96893 44.4849C8.18759 44.4847 8.40624 44.4848 8.62489 44.4854C8.83054 44.4859 9.03618 44.4858 9.24183 44.4852C9.31719 44.485 9.39255 44.4851 9.46791 44.4855C9.57102 44.4859 9.6741 44.4855 9.7772 44.485C9.80681 44.4853 9.83642 44.4856 9.86693 44.4859C10.2428 44.4815 10.5723 44.2996 10.8364 44.0292C11.1182 43.6868 11.2018 43.2802 11.2011 42.8447C11.2011 42.8102 11.2012 42.7756 11.2013 42.74C11.2015 42.624 11.2014 42.5081 11.2014 42.3921C11.2015 42.309 11.2016 42.226 11.2017 42.1429C11.202 41.9639 11.2022 41.7849 11.2023 41.6059C11.2025 41.3228 11.203 41.0398 11.2036 40.7567C11.2038 40.6598 11.2041 40.5629 11.2043 40.4661C11.2043 40.4418 11.2044 40.4176 11.2044 40.3927C11.205 40.1172 11.2055 39.8417 11.206 39.5662C11.2061 39.541 11.2061 39.5158 11.2062 39.4899C11.2069 39.0819 11.2072 38.6739 11.2075 38.2659C11.2078 37.8468 11.2085 37.4277 11.2097 37.0086C11.2104 36.7502 11.2108 36.4919 11.2106 36.2335C11.2104 36.0354 11.211 35.8373 11.2118 35.6392C11.212 35.5581 11.212 35.4769 11.2118 35.3957C11.2115 35.2848 11.212 35.174 11.2127 35.0631C11.2125 35.031 11.2122 34.999 11.2119 34.9659C11.2143 34.7629 11.2496 34.61 11.3607 34.4399C11.4744 34.3356 11.6037 34.3077 11.7521 34.2859C11.9136 34.296 12.0607 34.3625 12.1803 34.4737C12.3039 34.6656 12.3296 34.8316 12.3236 35.0579C12.3232 35.1037 12.3232 35.1037 12.3228 35.1504C12.3218 35.2521 12.3199 35.3538 12.3179 35.4556C12.317 35.5288 12.3162 35.6019 12.3154 35.6751C12.3137 35.8325 12.3117 35.9898 12.3094 36.1471C12.3059 36.3962 12.304 36.6452 12.3025 36.8943C12.3022 36.9574 12.3022 36.9574 12.3018 37.0218C12.3013 37.1079 12.3007 37.1939 12.3002 37.28C12.2967 37.8596 12.292 38.4392 12.283 39.0187C12.277 39.41 12.2735 39.8013 12.2729 40.1926C12.2725 40.3996 12.2708 40.6063 12.2659 40.8132C12.2056 41.6106 12.2056 41.6106 12.4152 42.3507C12.5814 42.5131 12.7625 42.5946 12.982 42.6542C13.0944 42.6869 13.1786 42.7387 13.2767 42.8031C13.3326 42.8355 13.3886 42.8678 13.4446 42.9001C13.5079 42.9367 13.5712 42.9733 13.6344 43.0099C13.6653 43.0278 13.6962 43.0457 13.7281 43.0642C13.8449 43.1321 13.9611 43.201 14.0774 43.27C14.3869 43.4535 14.6994 43.6307 15.0139 43.805C15.1907 43.9031 15.3665 44.0024 15.5408 44.1051C15.8468 44.2846 16.1592 44.4521 16.4704 44.6216C16.7354 44.7661 16.9994 44.9122 17.2621 45.061C17.5221 45.208 17.7845 45.3481 18.0508 45.4824C18.1192 45.5171 18.1872 45.5523 18.2553 45.5877C18.2787 45.5998 18.3021 45.612 18.3262 45.6245C18.3706 45.6475 18.4149 45.6706 18.4591 45.6937C18.5936 45.7633 18.7302 45.8251 18.8686 45.8861C18.9441 45.9243 19.0191 45.9629 19.094 46.0022C19.3332 46.1265 19.5739 46.2474 19.8153 46.3673C19.8667 46.393 19.8667 46.393 19.9191 46.4192C20.1002 46.5089 20.2817 46.5916 20.4689 46.6668C20.5632 46.7059 20.6532 46.7518 20.7435 46.7999C20.9465 46.906 21.1515 46.9957 21.3644 47.0785C21.5053 47.1338 21.6422 47.1931 21.7783 47.2599C21.9916 47.3632 22.2091 47.4544 22.4279 47.5448C22.479 47.5661 22.479 47.5661 22.5313 47.5878C22.7323 47.6703 22.9344 47.7453 23.1405 47.8133C23.2297 47.8447 23.315 47.8813 23.4012 47.9205C24.284 48.3046 25.2397 48.5433 26.1798 48.7224C26.2266 48.7315 26.2266 48.7315 26.2744 48.7408C26.4645 48.7694 26.6561 48.7624 26.8478 48.7625C26.8894 48.7629 26.931 48.7633 26.9739 48.7637C27.4741 48.7645 27.9556 48.6825 28.444 48.581C28.4814 48.5733 28.4814 48.5733 28.5196 48.5654C29.199 48.4238 29.8406 48.201 30.4915 47.957C30.6628 47.8929 30.8351 47.8329 31.0087 47.7755C31.1338 47.7301 31.2523 47.6721 31.3722 47.6139C31.4966 47.5568 31.6233 47.5148 31.7533 47.4731C31.7533 47.4508 31.7533 47.4285 31.7533 47.4056C31.7819 47.4016 31.8105 47.3977 31.8399 47.3937C31.9497 47.3719 32.0364 47.3388 32.138 47.2915C32.1928 47.2661 32.1928 47.2661 32.2487 47.2403C32.2885 47.2215 32.3283 47.2028 32.3681 47.184C32.4102 47.1643 32.4523 47.1446 32.4944 47.1249C32.6301 47.0614 32.7655 46.9972 32.9008 46.9329C32.9232 46.9222 32.9457 46.9116 32.9688 46.9006C33.8866 46.4645 34.7987 46.0137 35.683 45.5087C35.8624 45.4065 36.0443 45.3097 36.2265 45.213C36.5788 45.0252 36.9242 44.8262 37.2684 44.6231C37.357 44.5709 37.4459 44.5189 37.5347 44.467C38.0823 44.1468 38.6248 43.8181 39.1608 43.4779C39.2881 43.3975 39.4161 43.3205 39.5481 43.2483C39.6966 43.1668 39.8366 43.0752 39.9774 42.9803C40.1726 42.8496 40.3726 42.7273 40.5727 42.6046C40.96 42.3667 41.3413 42.1201 41.7201 41.8681C41.7558 41.8444 41.7558 41.8444 41.7922 41.8202C41.8812 41.761 41.9702 41.7017 42.0592 41.6422C42.1934 41.5525 42.328 41.4634 42.4631 41.375C42.8711 41.1075 43.276 40.8359 43.6775 40.5582C43.7121 40.5343 43.7467 40.5104 43.7823 40.4858C43.8155 40.4628 43.8486 40.4399 43.8828 40.4162C44.0129 40.328 44.1454 40.2439 44.2787 40.1607C44.2999 40.1447 44.3211 40.1288 44.343 40.1124C44.343 40.0901 44.343 40.0678 44.343 40.0448C44.362 40.041 44.381 40.0371 44.4006 40.0331C44.4803 40.0092 44.5336 39.9767 44.6022 39.9287C44.6264 39.9119 44.6506 39.8951 44.6755 39.8778C44.701 39.8598 44.7265 39.8418 44.7528 39.8233C44.8061 39.7862 44.8594 39.7491 44.9126 39.712C44.9386 39.6938 44.9645 39.6756 44.9913 39.6569C45.0862 39.5906 45.1817 39.5254 45.2774 39.4603C45.4177 39.364 45.5563 39.2654 45.6941 39.1654C45.8047 39.0856 45.916 39.0071 46.0274 38.9285C46.4611 38.622 46.8912 38.31 47.3205 37.997C47.5052 37.8626 47.6913 37.7304 47.8781 37.5991C47.9348 37.5592 47.9913 37.519 48.0478 37.4787C48.0743 37.46 48.1008 37.4412 48.1281 37.4219C48.1532 37.3999 48.1532 37.3999 48.1789 37.3774C48.1789 37.3552 48.1789 37.3329 48.1789 37.3099C48.2068 37.2995 48.2068 37.2995 48.2353 37.2888C48.3367 37.2259 48.3927 37.1391 48.4576 37.0398C48.4771 37.0103 48.4771 37.0103 48.4969 36.9803C48.8034 36.5038 48.8711 35.952 48.7816 35.3943C48.6401 34.8656 48.3192 34.4657 47.8706 34.1855C47.7666 34.1251 47.6681 34.0775 47.556 34.0347C47.5244 34.0221 47.5244 34.0221 47.4922 34.0091C47.0635 33.8471 46.5879 33.8852 46.1745 34.0744C46.1322 34.0949 46.09 34.1154 46.0478 34.136C46.0046 34.1563 45.9614 34.1764 45.9181 34.1966C45.8017 34.2515 45.6863 34.3084 45.5712 34.3659C45.4467 34.428 45.3219 34.4895 45.1972 34.5509C45.1321 34.583 45.0671 34.6151 45.0022 34.6473C44.8402 34.7274 44.6777 34.8051 44.5133 34.8796C44.3871 34.9375 44.2627 34.9991 44.1381 35.0603C43.9273 35.1639 43.7157 35.2656 43.5036 35.3662C43.3932 35.4186 43.283 35.4714 43.1728 35.5242C42.8234 35.6918 42.4739 35.8591 42.1218 36.0205C41.9355 36.106 41.752 36.1949 41.5706 36.2906C41.2971 36.4349 41.0157 36.5602 40.7345 36.6875C40.5073 36.7908 40.2836 36.8983 40.0627 37.0152C39.8789 37.1118 39.6909 37.1959 39.5007 37.2784C39.38 37.3325 39.263 37.3932 39.1456 37.4543C38.8985 37.5829 38.6472 37.7002 38.3945 37.8164C38.3091 37.8557 38.2238 37.8951 38.1384 37.9346C38.1175 37.9442 38.0965 37.9539 38.075 37.9639C37.9033 38.0434 37.7328 38.1253 37.5625 38.2078C37.453 38.2606 37.3432 38.3115 37.2317 38.3594C36.9323 38.4898 36.7589 38.6149 36.5728 38.8968C36.2462 39.3005 35.7986 39.534 35.327 39.7072C35.302 39.718 35.2771 39.7289 35.2514 39.74C34.9143 39.8724 34.5664 39.8908 34.2098 39.8891C34.1617 39.8893 34.1136 39.8894 34.0654 39.8897C33.9346 39.8902 33.8038 39.89 33.6729 39.8898C33.5313 39.8896 33.3897 39.89 33.248 39.8904C32.9712 39.891 32.6944 39.891 32.4175 39.8908C32.1925 39.8907 31.9675 39.8907 31.7426 39.8909C31.7105 39.8909 31.6784 39.8909 31.6453 39.891C31.5802 39.891 31.515 39.8911 31.4498 39.8911C30.8396 39.8916 30.2294 39.8914 29.6191 39.891C29.0609 39.8907 28.5026 39.8911 27.9444 39.8919C27.3707 39.8928 26.797 39.8931 26.2233 39.8929C25.9014 39.8927 25.5795 39.8928 25.2576 39.8934C24.9838 39.8939 24.7099 39.8939 24.4361 39.8933C24.2965 39.893 24.1568 39.893 24.0171 39.8935C23.8893 39.894 23.7614 39.8938 23.6336 39.8931C23.5873 39.893 23.5411 39.8931 23.4949 39.8935C23.0643 39.8965 23.0643 39.8965 22.8684 39.741C22.7641 39.6132 22.7102 39.4794 22.6881 39.3147C22.7146 39.1306 22.7632 38.9904 22.9012 38.8673C23.0368 38.7684 23.126 38.7576 23.2882 38.7577C23.3281 38.7576 23.3681 38.7576 23.4092 38.7575C23.4538 38.7576 23.4983 38.7577 23.5429 38.7578C23.59 38.7578 23.6372 38.7578 23.6843 38.7577C23.7871 38.7577 23.8898 38.7577 23.9926 38.7579C24.1597 38.7581 24.3269 38.7581 24.4941 38.758C24.7054 38.758 24.9167 38.758 25.128 38.7581C25.5436 38.7583 25.9592 38.758 26.3748 38.7576C26.4403 38.7575 26.5057 38.7574 26.5712 38.7574C26.7037 38.7572 26.8362 38.7571 26.9687 38.7569C27.3096 38.7566 27.6505 38.7562 27.9914 38.7559C28.0256 38.7559 28.0598 38.7559 28.095 38.7559C28.6485 38.7554 29.202 38.7556 29.7555 38.7559C30.3241 38.7563 30.8927 38.7559 31.4613 38.7548C31.8117 38.7541 32.1622 38.7541 32.5126 38.7549C32.7532 38.7553 32.9938 38.7551 33.2344 38.7542C33.373 38.7537 33.5116 38.7536 33.6501 38.7543C34.4292 38.7679 34.4292 38.7679 35.163 38.5254C35.1954 38.5086 35.2278 38.4918 35.2612 38.4745C35.7663 38.1967 36.055 37.7506 36.2275 37.2048C36.3596 36.7215 36.2932 36.2073 36.0728 35.7673C35.7823 35.245 35.3697 34.8929 34.8004 34.7248C34.5241 34.6553 34.2507 34.6635 33.9681 34.6659C33.9079 34.6661 33.8477 34.6662 33.7875 34.6662C33.6586 34.6664 33.5297 34.6669 33.4008 34.6676C33.1967 34.6686 32.9926 34.6687 32.7885 34.6686C32.2084 34.6684 31.6283 34.6692 31.0482 34.6717C30.7272 34.6731 30.4063 34.6735 30.0854 34.6729C29.8827 34.6725 29.6801 34.6733 29.4775 34.675C29.3512 34.6758 29.2249 34.6755 29.0986 34.6748C29.0403 34.6747 28.9821 34.6751 28.9238 34.6759C28.5546 34.6812 28.3276 34.6475 28.0485 34.3724C28.021 34.347 27.9935 34.3216 27.9652 34.2955C27.9131 34.2474 27.8613 34.1988 27.8098 34.15C27.6526 34.0062 27.4858 33.8752 27.3193 33.743C27.2647 33.6995 27.2103 33.6555 27.156 33.6115C26.3623 32.9702 25.4867 32.3832 24.5733 31.9413C24.5249 31.9178 24.5249 31.9178 24.4756 31.8938C23.5013 31.4213 22.4302 30.9266 21.3529 30.775C21.2619 30.7596 21.2619 30.7596 21.1522 30.7274C20.9559 30.6758 20.7539 30.6629 20.5526 30.6455C20.4844 30.6395 20.4163 30.633 20.3481 30.6264C20.016 30.596 19.6834 30.5826 19.3503 30.5726C19.3136 30.5715 19.3136 30.5715 19.2762 30.5704C18.6188 30.5512 17.9615 30.5526 17.304 30.5535C17.1288 30.5538 16.9536 30.5538 16.7784 30.5538C16.4486 30.5539 16.1189 30.5542 15.7892 30.5545C15.413 30.5549 15.0367 30.5551 14.6605 30.5553C13.8884 30.5556 13.1163 30.5562 12.3442 30.557C12.3438 30.6042 12.3438 30.6042 12.3433 30.6524C12.3419 30.7702 12.3398 30.8879 12.3374 31.0056C12.3365 31.0564 12.3358 31.1072 12.3354 31.158C12.3347 31.2313 12.3331 31.3047 12.3314 31.378C12.3304 31.444 12.3304 31.444 12.3294 31.5114C12.3027 31.6988 12.2328 31.8237 12.0963 31.954C11.9292 32.0687 11.7518 32.0627 11.5574 32.0426C11.3782 31.9587 11.3122 31.8477 11.2295 31.6712C11.1908 31.5509 11.1925 31.4359 11.1921 31.3097C11.1919 31.276 11.1919 31.276 11.1918 31.2416C11.1915 31.1929 11.1913 31.1442 11.1912 31.0955C11.191 31.0181 11.1905 30.9407 11.1899 30.8633C11.1882 30.6432 11.1866 30.4231 11.1861 30.203C11.1857 30.0682 11.1848 29.9334 11.1834 29.7986C11.183 29.7476 11.1828 29.6965 11.1829 29.6455C11.1835 29.1407 11.0829 28.7999 10.7429 28.4319C10.5221 28.2157 10.2235 28.0547 9.91399 28.0538C9.88715 28.0537 9.86031 28.0535 9.83266 28.0534C9.80336 28.0534 9.77405 28.0534 9.74386 28.0534C9.71259 28.0533 9.68131 28.0532 9.64909 28.053C9.54402 28.0527 9.43895 28.0525 9.33387 28.0524C9.25864 28.0522 9.18341 28.052 9.10817 28.0517C8.8608 28.051 8.61343 28.0507 8.36605 28.0503C8.28085 28.0502 8.19565 28.0501 8.11045 28.0499C7.75593 28.0493 7.40142 28.0489 7.0469 28.0486C6.95494 28.0485 6.86297 28.0485 6.77101 28.0484C6.74816 28.0484 6.7253 28.0484 6.70175 28.0484C6.33198 28.0481 5.96222 28.0472 5.59246 28.0461C5.21237 28.045 4.83229 28.0444 4.45221 28.0443C4.23899 28.0442 4.02578 28.0439 3.81256 28.0431C3.61178 28.0423 3.41101 28.0421 3.21024 28.0425C3.13677 28.0425 3.0633 28.0423 2.98983 28.0418C2.34421 28.038 1.87499 28.0991 1.44073 28.638Z" fill="#1DA8A3"/>
<path d="M29.1057 6.64649C29.1468 6.64637 29.1879 6.64626 29.2303 6.64615C29.3172 6.64598 29.4041 6.64588 29.4909 6.6459C29.6209 6.64591 29.7508 6.64522 29.8807 6.64457C30.6908 6.64261 31.4786 6.70728 32.2786 6.83575C32.3442 6.846 32.4098 6.85623 32.4755 6.86642C32.6607 6.89536 32.8457 6.92535 33.0306 6.95604C33.0565 6.96032 33.0823 6.96459 33.109 6.96899C33.4265 7.02207 33.7371 7.09093 34.0482 7.17512C34.154 7.20352 34.2601 7.2305 34.3661 7.25781C35.3457 7.51415 36.2943 7.84396 37.231 8.23409C37.3614 8.28758 37.4929 8.33737 37.6247 8.38682C37.7907 8.45018 37.9481 8.52084 38.1049 8.60537C38.2446 8.67982 38.3897 8.74259 38.5343 8.80637C38.7825 8.91749 39.024 9.04286 39.266 9.16763C39.3006 9.18547 39.3006 9.18547 39.336 9.20366C39.742 9.41296 40.1427 9.63071 40.5385 9.85981C40.5605 9.87249 40.5825 9.88517 40.6052 9.89824C40.9993 10.1258 41.3877 10.3635 41.7667 10.6169C41.8751 10.6894 41.984 10.761 42.0936 10.8315C42.4673 11.0719 42.8328 11.3223 43.1941 11.5818C43.2313 11.6085 43.2313 11.6085 43.2693 11.6357C43.5654 11.8485 43.8572 12.0662 44.1449 12.2909C44.209 12.3404 44.2732 12.3897 44.3374 12.4391C44.6843 12.7063 45.0291 12.9749 45.3627 13.2596C45.4323 13.3175 45.5022 13.3738 45.5735 13.4292C45.5932 13.4446 45.6129 13.4599 45.6332 13.4757C45.6718 13.5055 45.7105 13.5352 45.7494 13.5647C45.7949 13.6 45.8389 13.6374 45.8826 13.6752C45.8826 13.6975 45.8826 13.7198 45.8826 13.7427C45.9017 13.7519 45.9209 13.7611 45.9406 13.7705C46.0129 13.8098 46.0704 13.8527 46.1334 13.906C46.156 13.9251 46.1785 13.9441 46.2017 13.9637C46.2256 13.9841 46.2494 14.0045 46.2739 14.0255C46.2987 14.0467 46.3235 14.0678 46.349 14.0895C46.5549 14.2664 46.7527 14.4508 46.9477 14.6402C47.029 14.7189 47.1115 14.7963 47.194 14.8739C47.2969 14.9709 47.3997 15.068 47.502 15.1657C47.722 15.3768 47.722 15.3768 47.948 15.5808C48.0732 15.6909 48.1847 15.8035 48.2882 15.9353C48.3659 16.0335 48.4538 16.1119 48.548 16.1928C48.6526 16.2839 48.7457 16.3807 48.8292 16.4925C48.8876 16.565 48.934 16.6077 49.0054 16.6634C49.3472 16.958 49.5754 17.5108 49.6201 17.9633C49.6684 18.6725 49.4657 19.2711 49.03 19.8204C48.8516 20.0253 48.6592 20.2166 48.4685 20.4092C48.4185 20.4603 48.3685 20.5114 48.3186 20.5626C48.2701 20.612 48.2217 20.6614 48.1732 20.7108C48.1512 20.7332 48.1292 20.7556 48.1065 20.7787C47.9776 20.9089 47.8453 21.0336 47.7085 21.1549C47.6431 21.2136 47.5821 21.2756 47.5218 21.3398C47.4207 21.4454 47.3159 21.5435 47.2067 21.6401C47.1245 21.7148 47.0446 21.7916 46.9647 21.8688C46.7828 22.0446 46.5986 22.2135 46.4038 22.3741C46.2899 22.4699 46.1796 22.5695 46.069 22.6693C45.8923 22.8285 45.7117 22.9807 45.526 23.1286C45.3972 23.2316 45.2725 23.3383 45.149 23.448C44.9287 23.6431 44.6964 23.8204 44.4628 23.998C44.4125 24.0369 44.3634 24.0772 44.3144 24.1176C44.1648 24.2406 44.0233 24.2608 43.8356 24.2562C43.671 24.2315 43.5538 24.1488 43.4439 24.0228C43.337 23.8604 43.3342 23.6909 43.3581 23.5007C43.4405 23.2012 43.6946 23.052 43.9277 22.8761C44.1949 22.6722 44.4511 22.4559 44.7064 22.2366C44.7892 22.1656 44.8728 22.0956 44.9564 22.0257C45.139 21.8719 45.3192 21.7151 45.4988 21.5576C45.5554 21.508 45.6121 21.4586 45.6688 21.4092C45.9141 21.1948 46.1527 20.9744 46.3877 20.7483C46.4558 20.683 46.5244 20.6181 46.5929 20.5533C46.6648 20.4852 46.7365 20.4169 46.8081 20.3485C46.8477 20.3107 46.8873 20.2729 46.927 20.2352C47.2142 19.9615 47.4964 19.6826 47.7745 19.3991C47.8079 19.3652 47.8413 19.3314 47.8748 19.2977C48.1616 19.0084 48.4081 18.7443 48.4212 18.3109C48.4224 17.7961 48.1852 17.5361 47.8497 17.1867C47.824 17.1598 47.7982 17.1328 47.7717 17.105C47.6336 16.9605 47.495 16.8166 47.3556 16.6734C47.3324 16.6495 47.3091 16.6256 47.2851 16.601C47.2297 16.5428 47.2297 16.5428 47.1612 16.5115C47.1612 16.4892 47.1612 16.4669 47.1612 16.4439C47.1421 16.4354 47.123 16.4268 47.1033 16.4179C47.0221 16.3719 46.9709 16.3209 46.9071 16.2519C46.7791 16.1167 46.6447 15.9927 46.5055 15.8699C46.3583 15.7391 46.2168 15.6064 46.0793 15.4647C45.9932 15.3844 45.9051 15.3065 45.817 15.2284C45.8002 15.2134 45.7834 15.1985 45.766 15.1831C45.5453 14.9867 45.3234 14.7921 45.0969 14.6028C45.0196 14.538 44.9427 14.4729 44.8661 14.4074C44.5862 14.1684 44.3033 13.9355 44.0138 13.709C43.9462 13.6548 43.8785 13.6007 43.8109 13.5465C43.157 13.0268 42.4744 12.4855 41.7545 12.0665C41.7319 12.0514 41.7093 12.0363 41.686 12.0207C41.686 11.9985 41.686 11.9762 41.686 11.9532C41.6584 11.9453 41.6309 11.9375 41.6025 11.9293C41.4722 11.8791 41.3657 11.8075 41.2516 11.7274C40.9027 11.4888 40.5391 11.2769 40.1751 11.0638C40.0964 11.0177 40.0178 10.9713 39.9394 10.9246C39.2993 10.5458 38.6364 10.1983 37.9648 9.88302C37.9309 9.86703 37.8969 9.85104 37.8619 9.83457C37.5638 9.69451 37.2647 9.55693 36.9649 9.42086C36.9649 9.44315 36.9649 9.46543 36.9649 9.48839C36.9838 9.49714 37.0027 9.50589 37.0221 9.5149C37.5264 9.79484 37.9963 10.4104 38.3419 10.8727C38.3736 10.9131 38.4055 10.9533 38.4374 10.9934C38.6139 11.2159 38.7816 11.4397 38.9329 11.6815C38.9779 11.753 39.0242 11.8237 39.0715 11.8936C39.4172 12.4052 39.7486 12.9808 39.9539 13.5686C39.984 13.6491 40.0191 13.726 40.0549 13.8039C40.4592 14.7164 40.6782 15.7157 40.8254 16.7035C40.8292 16.7289 40.833 16.7543 40.8369 16.7805C40.9013 17.2413 40.9081 17.7034 40.9094 18.168C40.9095 18.2011 40.9096 18.2341 40.9097 18.2682C40.9107 19.2369 40.8125 20.1996 40.5713 21.1372C40.5651 21.1617 40.5589 21.1862 40.5524 21.2114C40.4265 21.7051 40.2704 22.1853 40.0795 22.6566C40.0597 22.7066 40.0399 22.7566 40.0201 22.8066C39.9976 22.8628 39.975 22.9191 39.9525 22.9753C39.9421 23.0015 39.9318 23.0276 39.9211 23.0546C39.8347 23.268 39.7304 23.4681 39.6205 23.6696C39.6035 23.7011 39.5866 23.7327 39.5691 23.7652C39.1673 24.5119 39.1673 24.5119 38.932 24.8513C38.9117 24.881 38.8914 24.9107 38.8705 24.9413C38.6915 25.1992 38.5022 25.4487 38.3091 25.6955C38.2881 25.7225 38.2881 25.7225 38.2667 25.7501C38.0366 26.0445 37.7814 26.3127 37.5222 26.5797C37.5054 26.597 37.4886 26.6144 37.4713 26.6322C37.4228 26.6821 37.3742 26.7319 37.3255 26.7816C37.2971 26.8106 37.2687 26.8396 37.2395 26.8695C37.1725 26.9342 37.1053 26.9913 37.0304 27.046C37.2321 26.9792 37.4229 26.8935 37.6165 26.8055C37.6529 26.7889 37.6894 26.7724 37.7269 26.7553C38.0131 26.6245 38.2931 26.4847 38.5714 26.337C38.6938 26.2724 38.8156 26.2097 38.9426 26.1551C39.1071 26.084 39.2616 25.9928 39.4176 25.9044C39.4483 25.8872 39.4789 25.87 39.5104 25.8523C39.6868 25.7529 39.8599 25.6494 40.0318 25.5421C40.1652 25.4605 40.3017 25.3852 40.4381 25.3093C40.6527 25.189 40.8624 25.0656 41.0664 24.927C41.2212 24.8227 41.3742 24.8374 41.5549 24.8513C41.7415 24.8934 41.8414 24.9998 41.9483 25.1552C42.005 25.3304 42.0045 25.4976 41.9401 25.6701C41.8293 25.8494 41.7316 25.9545 41.5487 26.0563C41.5075 26.0797 41.4663 26.1031 41.4251 26.1265C41.4035 26.1387 41.3819 26.1509 41.3596 26.1635C41.2444 26.2296 41.1313 26.2993 41.018 26.3686C40.7725 26.518 40.5247 26.6628 40.2757 26.8059C40.2101 26.8437 40.1449 26.882 40.0796 26.9205C39.531 27.243 38.9621 27.5298 38.3839 27.7918C38.274 27.8417 38.1674 27.8957 38.0611 27.9535C37.9133 28.0303 37.7638 28.0953 37.6084 28.1538C37.5619 28.1716 37.5154 28.1893 37.4688 28.2071C37.4451 28.2161 37.4214 28.2251 37.397 28.2344C37.2825 28.278 37.1683 28.3222 37.054 28.3664C37.0091 28.3838 36.9642 28.4011 36.9193 28.4185C36.8971 28.427 36.8749 28.4356 36.8521 28.4444C36.7837 28.4708 36.7152 28.4973 36.6467 28.5237C36.6244 28.5323 36.6021 28.5409 36.5792 28.5498C36.5357 28.5666 36.4921 28.5834 36.4486 28.6002C36.3636 28.633 36.2786 28.6659 36.1938 28.6991C36.0647 28.7497 35.9353 28.7948 35.803 28.8356C35.6857 28.8719 35.5691 28.9094 35.4531 28.9499C34.8282 29.1654 34.1929 29.3224 33.5477 29.4573C33.4543 29.4777 33.3621 29.5021 33.2696 29.5265C33.0767 29.573 32.8813 29.6078 32.6864 29.6438C32.6502 29.6505 32.6502 29.6505 32.6132 29.6574C32.1239 29.7471 31.6344 29.7998 31.1391 29.8386C31.0622 29.8456 30.9855 29.8551 30.9091 29.8662C30.7394 29.8885 30.5702 29.8877 30.3993 29.888C30.3637 29.8881 30.3282 29.8882 30.2916 29.8884C30.1759 29.8887 30.0603 29.8887 29.9447 29.8886C29.9051 29.8886 29.8655 29.8886 29.8247 29.8885C27.6646 29.8855 25.4986 29.6119 23.4608 28.8385C23.364 28.8036 23.2676 28.7753 23.1683 28.7491C23.0325 28.7127 22.9125 28.6631 22.7857 28.6019C22.6881 28.5588 22.5892 28.5266 22.488 28.4937C22.2569 28.4175 22.0336 28.3242 21.8097 28.2278C21.7772 28.2138 21.7446 28.1998 21.711 28.1853C21.3319 28.0206 20.9596 27.841 20.5878 27.6596C20.5318 27.6324 20.4758 27.6052 20.4198 27.5781C19.1405 26.9583 17.9085 26.2397 16.7362 25.4253C16.6754 25.3838 16.6146 25.3423 16.5538 25.3008C16.3762 25.1788 16.1995 25.0554 16.0231 24.9315C15.9971 24.9133 15.9711 24.8952 15.9444 24.8764C15.7787 24.7598 15.6173 24.6387 15.4575 24.5137C15.4138 24.4799 15.3701 24.4461 15.3264 24.4124C15.0641 24.2098 15.0641 24.2098 14.9985 24.1592C14.9548 24.1254 14.9111 24.0916 14.8673 24.0579C14.3497 23.6584 13.8398 23.252 13.3539 22.8119C13.2766 22.7426 13.1973 22.6763 13.1174 22.6102C12.968 22.485 12.8239 22.3551 12.6815 22.2215C12.6137 22.1582 12.5452 22.0959 12.4761 22.0341C12.3387 21.9109 12.2044 21.7843 12.0698 21.6578C11.995 21.588 11.9194 21.5195 11.8429 21.4517C11.7408 21.3604 11.6457 21.2641 11.551 21.1647C11.4966 21.1097 11.441 21.0592 11.3826 21.0088C11.1818 20.8288 10.9946 20.6341 10.8062 20.4406C10.7411 20.3739 10.6757 20.3076 10.6102 20.2413C10.0615 19.6808 9.63079 19.0923 9.60939 18.2609C9.60709 17.6256 9.86106 17.053 10.2884 16.6019C10.3284 16.5605 10.3685 16.5191 10.4085 16.4777C10.4528 16.4315 10.4971 16.3852 10.5413 16.339C10.6246 16.2521 10.7081 16.1654 10.7917 16.0788C10.8162 16.0535 10.8162 16.0535 10.8411 16.0277C11.0123 15.8506 11.185 15.6772 11.3693 15.5146C11.4463 15.4455 11.5176 15.3713 11.5888 15.2959C11.7026 15.1775 11.8184 15.0654 11.9413 14.9572C12.018 14.8881 12.0924 14.817 12.1669 14.7454C12.3448 14.5742 12.5263 14.4112 12.7162 14.2541C12.8018 14.1817 12.884 14.1066 12.9658 14.0297C13.1055 13.8988 13.2497 13.7749 13.3965 13.6525C13.4791 13.5833 13.5609 13.5133 13.6424 13.4427C13.7837 13.3205 13.9259 13.201 14.0745 13.0883C14.1689 13.0163 14.262 12.9428 14.3551 12.8691C14.3735 12.8545 14.392 12.8399 14.411 12.8248C14.5211 12.7374 14.6301 12.6488 14.7383 12.5589C15.6324 11.8187 15.6324 11.8187 16.0804 11.8519C16.2365 11.9074 16.3328 11.9946 16.4411 12.122C16.4756 12.2287 16.4804 12.3096 16.4821 12.4217C16.4833 12.4738 16.4833 12.4738 16.4846 12.527C16.4634 12.7274 16.3459 12.8371 16.2038 12.9613C16.0618 13.0748 15.914 13.1796 15.7664 13.2853C15.5989 13.4058 15.4394 13.5327 15.2828 13.6681C15.1845 13.7519 15.0837 13.8319 14.9821 13.9116C14.7873 14.0648 14.5973 14.2234 14.4084 14.3843C14.365 14.4209 14.3216 14.4575 14.2781 14.4941C13.8626 14.8448 13.4536 15.2 13.0605 15.5771C12.9661 15.6671 12.8699 15.7544 12.7727 15.841C12.6796 15.9254 12.588 16.0115 12.4966 16.0978C12.4712 16.1218 12.4712 16.1218 12.4453 16.1462C12.3796 16.2083 12.3147 16.2701 12.2534 16.3368C12.2117 16.3764 12.2117 16.3764 12.1462 16.3764C12.1245 16.421 12.1029 16.4655 12.0806 16.5115C12.059 16.5115 12.0373 16.5115 12.015 16.5115C12.015 16.5337 12.015 16.556 12.015 16.579C11.9706 16.624 11.9706 16.624 11.9105 16.6739C11.8075 16.7602 11.7151 16.8532 11.6216 16.9504C11.5776 16.9946 11.5335 17.0388 11.4894 17.0829C11.4406 17.1323 11.3918 17.1817 11.3429 17.2311C11.3185 17.2554 11.294 17.2798 11.2688 17.3049C11.0311 17.5464 10.829 17.7992 10.8239 18.1565C10.8294 18.8217 11.226 19.1537 11.663 19.5999C11.7364 19.6748 11.8094 19.75 11.8825 19.8252C11.9297 19.8737 11.977 19.9222 12.0243 19.9706C12.0457 19.9927 12.0672 20.0148 12.0894 20.0376C12.2157 20.1663 12.3454 20.2891 12.4805 20.4081C12.5393 20.4616 12.5939 20.5176 12.6482 20.5759C12.771 20.705 12.9071 20.8151 13.0437 20.9283C13.1151 20.9896 13.1801 21.0515 13.2445 21.1203C13.3637 21.2475 13.4959 21.3556 13.6295 21.4663C13.7108 21.5347 13.7894 21.605 13.8674 21.6775C14.0008 21.801 14.1388 21.9178 14.2781 22.0341C14.3482 22.0933 14.4175 22.1529 14.4864 22.2135C14.5051 22.23 14.5238 22.2464 14.5431 22.2634C14.5793 22.2953 14.6153 22.3273 14.6513 22.3593C14.7621 22.457 14.8772 22.5399 14.9985 22.6229C15.0891 22.6932 15.1779 22.7657 15.267 22.8381C15.5525 23.0685 15.8427 23.2915 16.1359 23.5114C16.2078 23.5654 16.2794 23.6198 16.3509 23.6742C16.9394 24.1195 17.5482 24.5393 18.1787 24.9189C18.2485 24.963 18.3182 25.0073 18.3877 25.0518C18.868 25.3564 19.3576 25.6398 19.855 25.9137C19.9398 25.9604 20.0245 26.0074 20.1091 26.0543C20.6366 26.3454 21.1733 26.6364 21.7372 26.845C21.8131 26.8753 21.8794 26.9102 21.9491 26.9532C22.0426 27.0094 22.1066 27.0278 22.2114 27.046C22.1859 27.0223 22.1605 26.9985 22.1343 26.974C21.7719 26.6337 21.4106 26.2869 21.0966 25.898C21.0696 25.8653 21.0426 25.8326 21.0148 25.7989C20.7876 25.522 20.7876 25.522 20.6995 25.3855C20.6487 25.3074 20.6028 25.2543 20.5393 25.189C20.512 25.1521 20.4856 25.1145 20.46 25.0763C20.4454 25.0546 20.4308 25.0328 20.4158 25.0104C20.4004 24.9871 20.385 24.9639 20.3692 24.94C20.3531 24.9156 20.337 24.8913 20.3204 24.8663C19.792 24.0632 19.3478 23.1992 19.0311 22.2852C19.015 22.2407 18.9988 22.1963 18.9825 22.1519C18.8123 21.6855 18.6865 21.2186 18.5878 20.7307C18.5742 20.6624 18.5742 20.6624 18.5394 20.597C18.4835 20.3069 18.448 20.0119 18.4082 19.7191C18.4041 19.6893 18.4 19.6595 18.3957 19.6289C18.3345 19.1644 18.3359 18.6971 18.3345 18.2292C18.3343 18.1978 18.3341 18.1664 18.3339 18.134C18.3313 17.5144 18.3842 16.911 18.4861 16.3004C18.4933 16.2568 18.5005 16.2132 18.5079 16.1682C18.5597 15.8615 18.6194 15.5615 18.7033 15.2622C18.7101 15.2373 18.7169 15.2124 18.7239 15.1867C19.0552 13.9754 19.5467 12.8205 20.2434 11.7831C20.3104 11.6852 20.3104 11.6852 20.3638 11.5852C20.3785 11.5618 20.3931 11.5384 20.4081 11.5143C20.4298 11.5143 20.4514 11.5143 20.4737 11.5143C20.4854 11.4789 20.4854 11.4789 20.4973 11.4428C20.5465 11.3287 20.6124 11.2361 20.6868 11.1386C20.7012 11.1196 20.7157 11.1005 20.7305 11.0808C20.8512 10.923 20.9793 10.7741 21.1124 10.6273C21.1769 10.5553 21.2393 10.4825 21.3013 10.4084C21.434 10.2516 21.5748 10.104 21.7175 9.95688C21.7424 9.93081 21.7673 9.90474 21.793 9.87788C21.9449 9.72104 22.1006 9.58158 22.2769 9.45463C22.1198 9.50385 21.9721 9.55797 21.8261 9.63611C21.7041 9.70126 21.5822 9.7541 21.4532 9.80283C21.2161 9.89441 20.9942 10.0099 20.7694 10.1289C20.6859 10.1728 20.602 10.2156 20.518 10.2583C20.0016 10.5218 19.4893 10.7931 18.9935 11.096C18.9696 11.1105 18.9456 11.1251 18.921 11.1401C18.9002 11.1529 18.8794 11.1657 18.858 11.1789C18.6878 11.274 18.4979 11.2626 18.3099 11.2442C18.1514 11.1655 18.026 11.0497 17.9574 10.8791C17.9326 10.6556 17.9378 10.4985 18.0476 10.2987C18.2071 10.144 18.3875 10.0387 18.5783 9.92945C18.6109 9.91061 18.6436 9.89178 18.6772 9.87238C19.2091 9.56773 19.7518 9.28257 20.2974 9.00474C20.3711 8.96709 20.4446 8.92902 20.5179 8.89052C20.6761 8.80753 20.8313 8.73098 20.9988 8.67039C21.0766 8.63917 21.1494 8.60118 21.2237 8.56198C21.3582 8.49124 21.4938 8.43097 21.6345 8.37482C21.7225 8.33921 21.809 8.30085 21.8958 8.26231C22.1048 8.17198 22.3181 8.09631 22.5323 8.02026C22.6685 7.97176 22.8036 7.92269 22.9367 7.86558C23.1814 7.76167 23.4351 7.68143 23.6867 7.59757C23.7222 7.58573 23.7576 7.57389 23.7942 7.5617C24.7093 7.26446 25.6441 7.05645 26.5885 6.88731C26.7042 6.86656 26.8197 6.84497 26.935 6.82191C27.35 6.7409 27.7695 6.71908 28.1906 6.69435C28.2863 6.68757 28.3811 6.67845 28.4765 6.66849C28.6863 6.64857 28.8951 6.64669 29.1057 6.64649ZM28.1455 7.93522C28.1177 7.93936 28.0899 7.94351 28.0612 7.94778C27.753 7.9937 27.4519 8.05728 27.1508 8.13912C27.0463 8.1674 26.9415 8.19291 26.8362 8.218C26.578 8.28419 26.3294 8.38096 26.0801 8.47545C26.0596 8.48295 26.0392 8.49045 26.0182 8.49818C25.552 8.67235 25.0947 8.8971 24.669 9.15879C24.5759 9.21583 24.4814 9.26793 24.3854 9.31957C24.1943 9.42622 24.0241 9.55668 23.8506 9.69098C23.7899 9.73608 23.7291 9.7811 23.6683 9.82604C23.5219 9.93555 23.3802 10.0499 23.2399 10.1674C23.1442 10.2459 23.0456 10.3196 22.9457 10.3924C22.9306 10.4061 22.9154 10.4197 22.8998 10.4338C22.8998 10.4561 22.8998 10.4784 22.8998 10.5013C22.8815 10.5093 22.8632 10.5172 22.8443 10.5253C22.7501 10.5796 22.6849 10.6464 22.6085 10.7249C22.5934 10.7404 22.5782 10.7559 22.5627 10.7719C22.5306 10.8048 22.4987 10.8378 22.4669 10.8709C22.4193 10.9203 22.3713 10.9693 22.3233 11.0183C22.1188 11.2286 21.931 11.4489 21.7524 11.6831C21.7359 11.7045 21.7194 11.7259 21.7024 11.7479C21.3964 12.1479 21.1228 12.5645 20.8671 12.9999C20.8547 13.0211 20.8423 13.0422 20.8295 13.064C20.457 13.7044 20.1435 14.4071 19.9491 15.1271C19.9362 15.1748 19.9232 15.2224 19.9102 15.2701C19.8814 15.3762 19.8529 15.4824 19.8245 15.5887C19.8022 15.6724 19.7792 15.7556 19.7551 15.8388C19.6919 16.0597 19.661 16.2802 19.6354 16.5084C19.6213 16.6127 19.6213 16.6127 19.5885 16.6803C19.4193 17.6778 19.4448 18.7215 19.5885 19.7191C19.5973 19.7839 19.606 19.8487 19.6146 19.9135C19.6496 20.1679 19.689 20.4159 19.7524 20.6645C19.7619 20.7056 19.7714 20.7467 19.7811 20.789C19.9858 21.629 20.2943 22.4503 20.7046 23.2061C20.7323 23.2576 20.759 23.3097 20.7854 23.3619C21.0686 23.9194 21.433 24.4323 21.8179 24.9189C21.8431 24.9511 21.8683 24.9834 21.8943 25.0166C21.9198 25.0491 21.9453 25.0816 21.9716 25.1151C21.9947 25.1446 22.0178 25.1741 22.0417 25.2044C22.1163 25.2942 22.195 25.3763 22.2769 25.4591C22.3151 25.4987 22.3532 25.5384 22.3913 25.5781C22.4331 25.6214 22.4749 25.6648 22.5167 25.7081C22.5372 25.7295 22.5577 25.7509 22.5788 25.773C22.724 25.9232 22.8744 26.0646 23.031 26.2019C23.053 26.2212 23.0749 26.2405 23.0976 26.2604C23.3818 26.5082 23.6664 26.7402 23.9818 26.9447C24.0166 26.9685 24.0513 26.9922 24.0872 27.0166C25.1812 27.7624 26.4 28.2708 27.6865 28.5317C27.7141 28.5373 27.7417 28.5429 27.7701 28.5487C28.3864 28.6704 29.0064 28.7143 29.6332 28.7132C29.6643 28.7132 29.6953 28.7132 29.7273 28.7133C30.2815 28.7127 30.8124 28.6634 31.3585 28.5655C31.4282 28.5538 31.4979 28.5421 31.5675 28.5305C31.9703 28.4609 32.3551 28.3405 32.7437 28.213C32.7821 28.2005 32.8206 28.188 32.8601 28.175C33.2042 28.0604 33.5355 27.92 33.8625 27.7614C33.886 27.7501 33.9095 27.7387 33.9337 27.727C34.1278 27.6315 34.3138 27.525 34.4993 27.413C34.5947 27.3557 34.6911 27.3018 34.7887 27.2486C35.7026 26.7369 36.5645 25.9705 37.2364 25.1556C37.2901 25.0908 37.3451 25.0273 37.4002 24.9637C37.5234 24.8188 37.6354 24.6671 37.7456 24.5116C37.7654 24.4837 37.7852 24.4558 37.8056 24.4271C38.062 24.0644 38.3081 23.6988 38.5058 23.2982C38.5259 23.2577 38.5259 23.2577 38.5464 23.2164C38.8076 22.6923 38.8076 22.6923 39.0304 22.1502C39.0412 22.1208 39.0521 22.0915 39.0633 22.0613C39.0971 21.9675 39.1296 21.8733 39.1615 21.7787C39.1743 21.741 39.1871 21.7032 39.2003 21.6643C39.8518 19.6995 40.1264 17.0523 39.2807 15.091C39.2331 14.9804 39.1997 14.868 39.1664 14.7521C38.885 13.7924 38.3808 12.9317 37.8173 12.122C37.7974 12.0931 37.7974 12.0931 37.777 12.0636C37.3046 11.3809 36.7232 10.7441 36.0797 10.2312C36.0303 10.1884 35.9809 10.1456 35.9317 10.1026C35.7476 9.94171 35.5593 9.79481 35.3584 9.65722C35.3403 9.6445 35.3222 9.63178 35.3036 9.61867C34.6516 9.16017 33.9591 8.79671 33.2204 8.51143C33.1368 8.47855 33.0543 8.44397 32.9718 8.40819C32.6168 8.25564 32.2588 8.16367 31.8818 8.08586C31.8175 8.07028 31.8175 8.07028 31.752 8.03651C31.6873 8.02546 31.6223 8.01587 31.5573 8.00697C31.4176 7.98732 31.2782 7.96688 31.139 7.94326C31.1126 7.9388 31.0861 7.93433 31.0588 7.92973C31.0078 7.92104 30.9568 7.91223 30.9058 7.90325C30.4886 7.83287 30.0692 7.8259 29.6475 7.82548C29.6067 7.82541 29.6067 7.82541 29.5649 7.82535C29.0854 7.82552 28.62 7.86001 28.1455 7.93522Z" fill="#1DA8A3"/>
<path d="M31.1013 11.0088C31.1327 11.0153 31.1642 11.0218 31.1967 11.0285C31.5767 11.109 31.9259 11.2213 32.2815 11.3802C32.3338 11.4012 32.3861 11.4221 32.4384 11.443C33.3388 11.8124 34.2591 12.4407 34.8847 13.2086C34.9363 13.2699 34.9907 13.325 35.0478 13.3808C35.2061 13.5412 35.3321 13.7275 35.4617 13.9126C35.4821 13.9412 35.5025 13.9699 35.5235 13.9995C35.6495 14.1802 35.7603 14.3671 35.8673 14.5604C35.9123 14.6404 35.9595 14.7175 36.0089 14.7947C36.0827 14.9151 36.1331 15.0392 36.182 15.1721C36.2183 15.2697 36.2578 15.3655 36.2978 15.4615C36.3792 15.6625 36.4479 15.8657 36.5109 16.0735C36.5217 16.1076 36.5324 16.1417 36.5435 16.1768C36.6479 16.525 36.7032 16.8806 36.7595 17.2398C36.7683 17.2934 36.7786 17.3467 36.7907 17.3996C36.8118 17.527 36.8132 17.6538 36.8149 17.7827C36.8153 17.8112 36.8157 17.8397 36.8162 17.8691C36.8243 18.574 36.791 19.2322 36.642 19.9227C36.6354 19.9551 36.6287 19.9875 36.6219 20.0209C36.4113 21.0373 35.9361 22.0232 35.2978 22.8264C35.2764 22.8549 35.255 22.8835 35.2329 22.9128C34.2418 24.2281 32.841 25.058 31.298 25.4939C31.2611 25.5044 31.2243 25.5149 31.1863 25.5258C30.3893 25.7281 29.5177 25.77 28.7078 25.6393C28.6403 25.6286 28.5727 25.6193 28.5049 25.6102C27.9616 25.5319 27.3585 25.3909 26.8719 25.1224C26.7876 25.0776 26.7102 25.0437 26.6199 25.0106C25.941 24.7554 25.317 24.2584 24.795 23.7538C24.7259 23.6876 24.656 23.6246 24.5831 23.5629C24.4577 23.4533 24.3548 23.3271 24.2491 23.1979C24.2213 23.165 24.1935 23.1322 24.1648 23.0984C23.6584 22.4983 23.2855 21.8274 22.9704 21.1044C22.9535 21.0661 22.9365 21.0277 22.9191 20.9882C22.8611 20.8401 22.817 20.69 22.7737 20.5368C22.7656 20.5085 22.7575 20.4801 22.7491 20.451C22.7327 20.3937 22.7164 20.3364 22.7001 20.279C22.6836 20.2214 22.6666 20.1638 22.6492 20.1065C22.5945 19.9253 22.5527 19.747 22.5237 19.5597C22.5198 19.5362 22.5158 19.5127 22.5117 19.4885C22.4467 19.0811 22.4386 18.6675 22.4377 18.2555C22.4376 18.2324 22.4376 18.2092 22.4375 18.1853C22.4374 17.6547 22.4768 17.128 22.6098 16.6137C22.6179 16.5797 22.6259 16.5457 22.6343 16.5106C22.8605 15.5601 23.2315 14.6865 23.8106 13.9061C23.8567 13.8436 23.9013 13.7801 23.9458 13.7163C24.0557 13.5649 24.1798 13.4279 24.3043 13.2892C24.3608 13.2254 24.4144 13.1615 24.4663 13.0938C24.5492 12.9948 24.6377 12.9129 24.7343 12.8285C24.7823 12.7859 24.8294 12.7422 24.8755 12.6974C25.8593 11.7435 27.2038 11.1019 28.544 10.9413C28.5898 10.9349 28.6357 10.9286 28.6815 10.9223C29.4907 10.8177 30.3025 10.8415 31.1013 11.0088ZM27.0686 12.6295C27.0482 12.6389 27.0278 12.6484 27.0068 12.6581C26.4598 12.9117 25.9203 13.2831 25.5072 13.732C25.4621 13.7775 25.4621 13.7775 25.3966 13.8113C25.3966 13.8335 25.3966 13.8558 25.3966 13.8788C25.377 13.8876 25.3575 13.8965 25.3374 13.9056C24.803 14.2081 24.3625 15.1499 24.1179 15.7021C24.1079 15.7244 24.0979 15.7468 24.0876 15.7698C23.8478 16.3125 23.6805 16.897 23.6261 17.4916C23.6226 17.5279 23.619 17.5642 23.6153 17.6016C23.5247 18.674 23.6623 19.6682 24.0524 20.6655C24.0654 20.6989 24.0785 20.7324 24.0919 20.7668C24.1304 20.8587 24.1722 20.9477 24.2163 21.0369C24.2267 21.0581 24.2371 21.0792 24.2478 21.101C24.4035 21.4134 24.5779 21.7055 24.7798 21.9887C24.7985 22.0149 24.8171 22.0411 24.8364 22.0682C24.9422 22.2132 25.0535 22.3444 25.1809 22.4698C25.2341 22.5241 25.2816 22.581 25.3289 22.6407C25.4376 22.7739 25.5622 22.8841 25.6916 22.9953C25.7379 23.0356 25.7379 23.0356 25.785 23.0768C26.4085 23.6107 27.1194 23.9868 27.8883 24.2446C27.9237 24.2567 27.9591 24.2688 27.9956 24.2812C28.5485 24.4577 29.0879 24.49 29.6628 24.4894C29.6912 24.4893 29.7196 24.4893 29.7488 24.4893C29.8302 24.4891 29.9116 24.4885 29.993 24.4878C30.0178 24.4876 30.0426 24.4875 30.0682 24.4873C30.1955 24.4879 30.1955 24.4879 30.3144 24.4471C30.3798 24.437 30.4455 24.4281 30.5111 24.4197C31.8538 24.2252 33.2192 23.5349 34.0992 22.4504C34.1326 22.4093 34.167 22.3691 34.2024 22.3299C34.4089 22.1002 34.5734 21.8376 34.7405 21.5771C34.7595 21.5475 34.7785 21.5179 34.7981 21.4873C34.9443 21.2475 35.0569 20.9896 35.17 20.732C35.1945 20.6767 35.22 20.6218 35.2457 20.567C35.4034 20.2135 35.4769 19.8276 35.5601 19.45C35.5661 19.4243 35.5721 19.3987 35.5784 19.3722C35.7948 18.4372 35.6986 17.3448 35.3962 16.4449C35.3756 16.3711 35.3551 16.2972 35.3347 16.2233C35.2792 16.0364 35.2036 15.8693 35.1153 15.6965C35.0722 15.6087 35.0377 15.5221 35.0048 15.4299C34.9304 15.2333 34.823 15.0653 34.7077 14.8917C34.6956 14.8733 34.6835 14.8548 34.671 14.8358C34.4978 14.5724 34.3123 14.3328 34.0993 14.1024C34.0192 14.0138 34.0192 14.0138 33.9509 13.9252C33.8924 13.8506 33.8338 13.7909 33.763 13.729C33.7323 13.7019 33.7323 13.7019 33.7009 13.6742C33.6761 13.6526 33.6513 13.631 33.6258 13.6087C33.6087 13.5934 33.5916 13.5781 33.574 13.5623C33.074 13.1157 32.5294 12.783 31.9191 12.5224C31.8745 12.5029 31.8302 12.4824 31.7863 12.4614C31.4833 12.3165 31.1625 12.2383 30.839 12.1568C30.8146 12.1505 30.7902 12.1443 30.7651 12.1378C29.5524 11.8402 28.1804 12.1006 27.0686 12.6295Z" fill="#1DA8A3"/>
<path d="M30.6617 14.6374C31.6101 14.9729 32.3897 15.5921 32.869 16.511C32.9325 16.6547 32.9844 16.8003 33.033 16.9499C33.0401 16.9717 33.0473 16.9934 33.0546 17.0158C33.3501 17.9224 33.3663 18.9379 32.9586 19.8168C32.4981 20.7632 31.7881 21.5028 30.8036 21.8458C30.7785 21.8554 30.7534 21.865 30.7276 21.8748C30.6552 21.9018 30.5825 21.9249 30.5085 21.9471C30.4787 21.9566 30.449 21.966 30.4183 21.9757C29.5415 22.2137 28.5868 22.0212 27.8096 21.5651C26.8457 20.9401 26.2699 20.0379 26.0169 18.9083C25.9959 18.795 25.9876 18.6858 25.9841 18.5706C25.9832 18.5475 25.9824 18.5243 25.9815 18.5004C25.9612 17.8735 25.9857 17.0893 26.398 16.5827C26.489 16.4847 26.5761 16.4203 26.7079 16.3984C26.9847 16.3932 27.1507 16.5041 27.3611 16.6798C27.5315 16.7747 27.7064 16.7673 27.8897 16.722C28.0874 16.6335 28.204 16.5356 28.3119 16.3422C28.3795 16.1332 28.3843 15.8987 28.3007 15.6948C28.2647 15.6275 28.2286 15.5602 28.1922 15.493C28.1244 15.3456 28.1166 15.218 28.1479 15.0591C28.2054 14.8959 28.3002 14.7792 28.443 14.6877C28.6377 14.5994 28.84 14.5648 29.0494 14.5334C29.5922 14.4375 30.1299 14.4571 30.6617 14.6374Z" fill="#1DA8A3"/>
<path d="M7.25678 38.9985C7.66421 39.3271 7.91864 39.7462 7.98306 40.2802C8.01652 40.8814 7.88093 41.3548 7.50382 41.8193C7.1302 42.2097 6.70144 42.3866 6.17575 42.3926C6.12651 42.3934 6.12651 42.3934 6.07627 42.3941C5.61958 42.3876 5.18735 42.1683 4.86843 41.8334C4.50105 41.4017 4.34115 40.9057 4.36102 40.3368C4.38956 39.9431 4.55496 39.5654 4.80285 39.2673C4.82904 39.2353 4.82904 39.2353 4.85575 39.2028C5.48882 38.4948 6.51367 38.4505 7.25678 38.9985Z" fill="#1DA8A3"/>
<path d="M35.875 0.375233C36.0176 0.468315 36.1053 0.550779 36.1829 0.707077C36.2349 1.0259 36.1583 1.24959 35.9944 1.51532C35.9549 1.58308 35.9155 1.65087 35.8762 1.7187C35.8561 1.75264 35.8361 1.78658 35.8154 1.82154C35.725 1.97719 35.6414 2.13644 35.5579 2.29613C35.5258 2.35716 35.4936 2.41818 35.4614 2.4792C35.4374 2.52473 35.4374 2.52473 35.4129 2.57119C35.3263 2.73568 35.2392 2.89997 35.1522 3.06428C35.1363 3.09429 35.1205 3.1243 35.1041 3.15522C35.0056 3.34137 34.9063 3.52705 34.8059 3.71214C34.7926 3.73683 34.7793 3.76152 34.7655 3.78696C34.7255 3.86076 34.6848 3.93419 34.644 4.00758C34.6308 4.03217 34.6175 4.05676 34.6039 4.0821C34.5041 4.26046 34.3987 4.39451 34.2158 4.48872C34.0362 4.50561 33.8755 4.5136 33.7096 4.43597C33.5478 4.27742 33.4523 4.17078 33.4453 3.93161C33.4488 3.62657 33.638 3.35402 33.7752 3.09382C33.7957 3.05478 33.8162 3.01574 33.8374 2.97551C33.9924 2.68086 34.1494 2.38739 34.3083 2.09493C34.3746 1.97287 34.4407 1.85067 34.5067 1.72846C34.52 1.70398 34.5333 1.67951 34.547 1.65429C34.6246 1.51061 34.7009 1.36622 34.7759 1.22107C34.8018 1.17133 34.8018 1.17133 34.8282 1.1206C34.8616 1.0563 34.8948 0.991874 34.9277 0.927306C35.1266 0.545395 35.405 0.157824 35.875 0.375233Z" fill="#1DA8A3"/>
<path d="M23.8919 0.393177C24.1398 0.52275 24.253 0.809922 24.3749 1.05084C24.4288 1.15736 24.4835 1.26346 24.5381 1.36958C24.5546 1.40172 24.5546 1.40172 24.5715 1.43451C24.6728 1.63105 24.7785 1.82488 24.8857 2.0181C25.052 2.3183 25.2137 2.62073 25.3717 2.92567C25.4463 3.06926 25.521 3.21147 25.606 3.34891C25.7434 3.57182 25.8226 3.75152 25.8047 4.0213C25.7606 4.22369 25.6556 4.33833 25.4963 4.4576C25.3212 4.51311 25.1531 4.50884 24.9738 4.47449C24.6922 4.28634 24.5634 3.96189 24.416 3.66451C24.3386 3.51043 24.2576 3.35839 24.1767 3.2062C24.1599 3.17442 24.143 3.14264 24.1256 3.1099C24.0178 2.90694 23.9085 2.70492 23.7977 2.50365C23.6735 2.27739 23.5534 2.04888 23.4337 1.82013C23.3385 1.63934 23.2393 1.46227 23.1343 1.28733C23.0344 1.10753 23.0358 0.910885 23.062 0.709721C23.2229 0.35947 23.5464 0.232109 23.8919 0.393177Z" fill="#1DA8A3"/>
<path d="M29.9766 0.10187C30.1294 0.242235 30.2202 0.427478 30.2334 0.638058C30.2342 0.698452 30.2341 0.758862 30.2332 0.819254C30.2334 0.85251 30.2336 0.885766 30.2338 0.92003C30.2341 1.02907 30.2333 1.13806 30.2325 1.2471C30.2324 1.32331 30.2324 1.39953 30.2325 1.47574C30.2325 1.63508 30.2318 1.7944 30.2308 1.95374C30.2295 2.15768 30.2294 2.36161 30.2296 2.56557C30.2297 2.7228 30.2293 2.88002 30.2287 3.03725C30.2285 3.11245 30.2284 3.18765 30.2284 3.26284C30.2284 3.36797 30.2277 3.47308 30.2268 3.5782C30.2269 3.60908 30.227 3.63995 30.2271 3.67177C30.2245 3.87655 30.2001 4.04772 30.0678 4.21035C29.884 4.35512 29.7411 4.4095 29.5103 4.40384C29.3633 4.37803 29.2597 4.30199 29.1639 4.18648C29.0358 3.98293 29.0139 3.80797 29.0163 3.56912C29.016 3.51859 29.016 3.51859 29.0158 3.46704C29.0154 3.3564 29.0159 3.24579 29.0165 3.13515C29.0165 3.05797 29.0164 2.98079 29.0163 2.90361C29.0163 2.7422 29.0167 2.5808 29.0175 2.41939C29.0184 2.21252 29.0183 2.00567 29.0179 1.7988C29.0177 1.63957 29.0179 1.48035 29.0183 1.32112C29.0185 1.24483 29.0185 1.16854 29.0183 1.09225C29.0183 0.985735 29.0188 0.879238 29.0195 0.772721C29.0194 0.741232 29.0192 0.709744 29.0191 0.677301C29.0215 0.458121 29.0651 0.349094 29.2049 0.181137C29.4577 -0.0436929 29.6913 -0.0461339 29.9766 0.10187Z" fill="#1DA8A3"/>
<path d="M34.6062 1.55469C34.6386 1.57697 34.6711 1.59926 34.7045 1.62222C34.7045 1.6445 34.7045 1.66679 34.7045 1.68975C34.6396 1.72317 34.5747 1.7566 34.5078 1.79104C34.5693 1.63066 34.5693 1.63066 34.6062 1.55469Z" fill="#1DA8A3"/>
</svg>
