<svg width="50" height="50" viewBox="0 0 50 50" fill="none" xmlns="http://www.w3.org/2000/svg">
<path d="M38.0846 32.3408L38.1023 32.29C38.2301 31.8101 38.4297 31.3523 38.6944 30.932C39.0304 30.5814 39.4185 30.2846 39.8449 30.0521C40.705 29.6134 41.4189 28.9341 41.8998 28.0969C42.2351 27.1973 42.3092 26.2211 42.1134 25.2812C42.0237 24.7812 42.0103 24.2705 42.0737 23.7665C42.2251 23.3078 42.4449 22.8746 42.7258 22.4817C43.3172 21.7011 43.6726 20.7674 43.75 19.7911C43.6723 18.8153 43.3172 17.8821 42.7267 17.1015C42.4452 16.7084 42.225 16.2748 42.0735 15.8157C42.0101 15.312 42.0235 14.8017 42.1132 14.302C42.3088 13.3621 42.2351 12.3861 41.9006 11.4863C41.4195 10.6499 40.7061 9.97103 39.8468 9.53212C39.4199 9.29907 39.0314 9.00158 38.6952 8.65015C38.4304 8.22984 38.2305 7.77202 38.1022 7.29212C37.8805 6.35265 37.3944 5.49629 36.7015 4.82431C35.9134 4.2827 34.9832 3.98558 34.0271 3.97014C33.5415 3.94867 33.0623 3.8512 32.607 3.68129C32.2007 3.42414 31.8358 3.10689 31.5246 2.74035C30.9187 1.97955 30.1023 1.41392 29.1771 1.114C28.241 0.981567 27.2867 1.12696 26.4325 1.53212C25.9776 1.73179 25.4943 1.85889 25 1.90879C24.5061 1.85907 24.0232 1.73207 23.5687 1.53244C22.7145 1.12661 21.7595 0.981677 20.8232 1.11577C19.8985 1.4146 19.0822 1.97916 18.4764 2.739C18.1657 3.10609 17.8007 3.42342 17.394 3.67994C16.9386 3.84985 16.4594 3.94732 15.9739 3.96879C15.0178 3.98422 14.0875 4.28134 13.2995 4.82296C12.6064 5.49539 12.12 6.35197 11.8977 7.29171C11.7699 7.77162 11.5703 8.22946 11.3056 8.64973C10.9696 9.00039 10.5815 9.29717 10.1551 9.52962C9.29503 9.96831 8.58108 10.6476 8.10021 11.4848C7.76486 12.3845 7.6908 13.3606 7.88656 14.3006C7.97632 14.8005 7.98971 15.3113 7.92625 15.8152C7.77493 16.2739 7.55508 16.7071 7.27417 17.1C6.6827 17.8808 6.32729 18.8146 6.25 19.7911C6.32773 20.7668 6.68279 21.7 7.27333 22.4807C7.55476 22.8738 7.77497 23.3073 7.92646 23.7665C7.98997 24.2703 7.97659 24.7809 7.88677 25.2807C7.69116 26.2205 7.76485 27.1965 8.09938 28.0964C8.58046 28.9328 9.29393 29.6117 10.1532 30.0506C10.5801 30.2836 10.9686 30.5811 11.3048 30.9325C11.5696 31.3528 11.7695 31.8107 11.8978 32.2906L11.9171 32.346C11.9137 32.3514 11.9081 32.3542 11.9049 32.3597L6.53177 41.6661C6.33538 42.0059 6.23901 42.3943 6.25377 42.7864C6.26852 43.1786 6.39381 43.5587 6.61517 43.8828C6.83654 44.2068 7.14498 44.4618 7.50494 44.6182C7.8649 44.7746 8.26173 44.826 8.64969 44.7667L12.2761 44.2154L13.6128 47.6343C13.7543 48.0005 13.9971 48.3189 14.3128 48.5522C14.6286 48.7854 15.0042 48.924 15.3958 48.9516C15.4497 48.9557 15.5036 48.9577 15.5576 48.9577C15.9228 48.9586 16.2818 48.8627 16.5979 48.6797C16.914 48.4967 17.176 48.2332 17.3571 47.9161L22.9225 38.2752C23.1437 38.204 23.3592 38.1258 23.5674 38.0497C24.0223 37.8502 24.5057 37.7232 25 37.6734C25.4938 37.7231 25.9768 37.8501 26.4312 38.0497C26.6396 38.126 26.8574 38.2016 27.0787 38.2731L27.0833 38.2868L32.6426 47.9161C32.8237 48.2332 33.0857 48.4967 33.4018 48.6797C33.7179 48.8627 34.0768 48.9586 34.4421 48.9577C34.496 48.9577 34.5499 48.9557 34.6039 48.9516C34.9957 48.9239 35.3716 48.7852 35.6876 48.5518C36.0036 48.3183 36.2465 47.9997 36.3881 47.6333L37.7238 44.2154L41.3488 44.7667C41.7368 44.8264 42.1338 44.7751 42.494 44.6188C42.8542 44.4626 43.1629 44.2077 43.3845 43.8835C43.606 43.5594 43.7315 43.1792 43.7463 42.7869C43.7611 42.3946 43.6647 42.006 43.4682 41.6661L38.0846 32.3408ZM15.5528 46.8744L13.9141 42.6802C13.8273 42.4605 13.6686 42.2766 13.4639 42.1586C13.2593 42.0406 13.0207 41.9953 12.787 42.0303L8.33635 42.7077L13.0667 34.5143C13.139 34.6001 13.2164 34.6814 13.2985 34.7579C14.0866 35.2995 15.0168 35.5966 15.9729 35.612C16.4585 35.6335 16.9377 35.731 17.393 35.9009C17.7993 36.158 18.1642 36.4753 18.4754 36.8418C19.0218 37.486 19.707 37.9981 20.4796 38.3396L15.5528 46.8744ZM27.1458 36.0925C26.4653 35.8012 25.7391 35.6311 25 35.59C24.2608 35.6306 23.5345 35.8007 22.8542 36.0925C22.3687 36.3295 21.8339 36.448 21.2937 36.4384C20.7774 36.202 20.3252 35.8451 19.9754 35.3977C19.5054 34.8496 18.9433 34.3878 18.3143 34.0332C17.6438 33.7473 16.9285 33.5808 16.2007 33.5411C15.6483 33.5403 15.1044 33.4041 14.6169 33.1443C14.2537 32.7043 13.9989 32.1851 13.8732 31.6286C13.6798 30.9208 13.3663 30.2516 12.9461 29.65C12.4697 29.1014 11.901 28.6404 11.2656 28.288C10.7567 28.0376 10.3165 27.6668 9.98333 27.2077C9.84206 26.6551 9.833 26.077 9.95688 25.5202C10.0804 24.7904 10.0818 24.0451 9.96094 23.3148C9.76686 22.6212 9.45549 21.9659 9.04031 21.3773C8.67881 20.9142 8.4361 20.3696 8.33333 19.7911C8.43596 19.2126 8.67869 18.6681 9.04031 18.2051C9.45589 17.6168 9.76729 16.9614 9.96094 16.2676C10.0818 15.5373 10.0804 14.7919 9.95688 14.0619C9.83275 13.5051 9.84218 12.9269 9.98438 12.3744C10.3172 11.9143 10.7576 11.5427 11.2671 11.292C11.9028 10.94 12.4719 10.4794 12.9486 9.93098C13.3678 9.32959 13.6805 8.66071 13.8733 7.95348C13.9996 7.39672 14.2546 6.87731 14.6179 6.43692C15.1055 6.17712 15.6493 6.04088 16.2018 6.04014C16.9297 6.00038 17.6451 5.83374 18.3156 5.54775C18.9451 5.19381 19.5074 4.73191 19.9768 4.18317C20.3267 3.73612 20.7788 3.37961 21.2951 3.14358C21.8349 3.13496 22.3691 3.25342 22.8546 3.48942C23.5349 3.78082 24.261 3.95095 25 3.99212C25.7392 3.95156 26.4655 3.78148 27.1458 3.48962C27.6317 3.25372 28.1662 3.13526 28.7062 3.14379C29.2226 3.38016 29.6748 3.73704 30.0246 4.18442C30.4946 4.7326 31.0567 5.19441 31.6857 5.549C32.3562 5.83485 33.0715 6.00138 33.7993 6.04108C34.3517 6.04182 34.8956 6.17806 35.3831 6.43785C35.7463 6.87786 36.0011 7.39706 36.1268 7.95358C36.3202 8.66134 36.6337 9.3306 37.0539 9.93212C37.5303 10.4807 38.099 10.9417 38.7344 11.2942C39.2433 11.5446 39.6835 11.9154 40.0167 12.3744C40.1579 12.927 40.167 13.5051 40.0431 14.0619C39.9196 14.7918 39.9182 15.537 40.0391 16.2673C40.2331 16.961 40.5445 17.6163 40.9597 18.2048C41.3212 18.668 41.5639 19.2126 41.6667 19.7911C41.564 20.3695 41.3213 20.914 40.9597 21.377C40.5441 21.9654 40.2327 22.6207 40.0391 23.3145C39.9182 24.0449 39.9196 24.7903 40.0431 25.5202C40.1672 26.077 40.1578 26.6553 40.0156 27.2077C39.6828 27.6678 39.2424 28.0395 38.7329 28.2901C38.0972 28.6422 37.5281 29.1028 37.0514 29.6512C36.6322 30.2526 36.3195 30.9215 36.1267 31.6287C36.0004 32.1855 35.7454 32.705 35.3821 33.1455C34.8945 33.4053 34.3507 33.5415 33.7982 33.5422C33.0703 33.582 32.3549 33.7486 31.6844 34.0346C31.0549 34.3886 30.4926 34.8505 30.0232 35.3992C29.6733 35.8462 29.2212 36.2028 28.7049 36.4388C28.1653 36.4467 27.6313 36.3281 27.1458 36.0925ZM37.2135 42.03C36.9799 41.9954 36.7414 42.0408 36.5368 42.1588C36.3322 42.2768 36.1735 42.4605 36.0865 42.68L34.4472 46.8744L29.5201 38.3396C30.2924 37.9986 30.9774 37.4869 31.5236 36.8432C31.8343 36.4761 32.1993 36.1587 32.606 35.9022C33.0614 35.7323 33.5406 35.6348 34.0261 35.6134C34.9822 35.5979 35.9125 35.3008 36.7005 34.7592C36.783 34.6824 36.8608 34.6007 36.9334 34.5145L41.6636 42.7077L37.2135 42.03ZM37.5 19.7911C37.5 17.3188 36.7669 14.9021 35.3934 12.8465C34.0198 10.7908 32.0676 9.18868 29.7835 8.24259C27.4995 7.29649 24.9861 7.04895 22.5614 7.53127C20.1366 8.01358 17.9093 9.20409 16.1612 10.9522C14.413 12.7004 13.2225 14.9277 12.7402 17.3525C12.2579 19.7772 12.5054 22.2905 13.4515 24.5746C14.3976 26.8587 15.9998 28.8109 18.0554 30.1845C20.111 31.558 22.5277 32.2911 25 32.2911C28.3141 32.2875 31.4914 30.9693 33.8348 28.6259C36.1783 26.2825 37.4964 23.1052 37.5 19.7911ZM25 30.2077C22.9398 30.2077 20.9258 29.5968 19.2128 28.4522C17.4998 27.3076 16.1647 25.6808 15.3763 23.7774C14.5878 21.874 14.3816 19.7795 14.7835 17.7589C15.1854 15.7383 16.1775 13.8822 17.6343 12.4254C19.0911 10.9686 20.9472 9.9765 22.9678 9.57457C24.9884 9.17264 27.0829 9.37892 28.9863 10.1673C30.8897 10.9557 32.5165 12.2909 33.6611 14.0039C34.8057 15.7169 35.4167 17.7309 35.4167 19.7911C35.4134 22.5528 34.3149 25.2004 32.3621 27.1532C30.4093 29.106 27.7617 30.2045 25 30.2077ZM29.7445 15.7994C29.8584 15.8752 29.9562 15.9728 30.0323 16.0864C30.1085 16.2001 30.1615 16.3276 30.1883 16.4618C30.2152 16.5959 30.2153 16.7341 30.1887 16.8683C30.1621 17.0025 30.1093 17.1301 30.0333 17.2439L25.8667 23.4939C25.7811 23.622 25.6683 23.7296 25.5362 23.8089C25.4041 23.8881 25.256 23.9371 25.1027 23.9522C25.0681 23.9557 25.0335 23.9577 25 23.9577C24.7238 23.9577 24.4588 23.8479 24.2635 23.6525L21.1385 20.5275C20.9488 20.3311 20.8438 20.068 20.8462 19.7948C20.8485 19.5217 20.9581 19.2604 21.1512 19.0673C21.3444 18.8742 21.6056 18.7646 21.8787 18.7623C22.1519 18.7599 22.415 18.8649 22.6115 19.0546L24.8382 21.2814L28.2999 16.0883C28.4532 15.8585 28.6915 15.699 28.9624 15.6449C29.2333 15.5907 29.5146 15.6463 29.7445 15.7994Z" fill="#1DA8A3"/>
</svg>
