<svg width="50" height="50" viewBox="0 0 50 50" fill="none" xmlns="http://www.w3.org/2000/svg">
<g clip-path="url(#clip0_1659_37123)">
<path d="M17.3596 11.7403C17.2159 12.1824 17.3574 12.6562 17.7197 12.9476L20.9457 15.5405L19.8599 19.5346C19.738 19.983 19.9022 20.4494 20.2784 20.723C20.6548 20.9961 21.1489 21.0081 21.5378 20.7536L25.0008 18.4867L28.4639 20.7537C28.6506 20.8759 28.8615 20.9366 29.0719 20.9366C29.3 20.9366 29.5277 20.8652 29.7231 20.723C30.0995 20.4497 30.2638 19.983 30.1416 19.5346L29.0558 15.5406L32.2817 12.9478C32.6443 12.6565 32.7857 12.1826 32.6419 11.7403C32.4983 11.2979 32.1053 10.9977 31.6409 10.9752L27.5069 10.7736L26.0377 6.9043C25.8728 6.46963 25.4657 6.18867 25.0007 6.18867C24.5358 6.18867 24.1286 6.46953 23.9638 6.9042L22.4946 10.7737L18.3608 10.9752C17.8962 10.9977 17.5033 11.2979 17.3596 11.7403ZM22.867 12.3198C23.3076 12.2983 23.6935 12.018 23.8498 11.6057L25.0006 8.5749L26.1514 11.606C26.308 12.0182 26.694 12.2983 27.1342 12.3198L30.3722 12.4777L27.8452 14.5087C27.5014 14.7852 27.3541 15.2388 27.4699 15.6642L28.3203 18.7925L25.6078 17.0168C25.4234 16.8961 25.2119 16.8357 25.0005 16.8357C24.7891 16.8357 24.5775 16.8962 24.3929 17.0169L21.6806 18.7925L22.5311 15.6644C22.6469 15.2387 22.4995 14.785 22.1556 14.5087L19.6287 12.4778L22.867 12.3198ZM24.2194 3.64824V0.78125C24.2194 0.349805 24.5692 0 25.0006 0C25.4321 0 25.7819 0.349805 25.7819 0.78125V3.64824C25.7819 4.07969 25.4321 4.42949 25.0006 4.42949C24.5692 4.42949 24.2194 4.07969 24.2194 3.64824ZM28.9771 8.27695C28.6884 7.95635 28.7143 7.4623 29.0349 7.17363L32.2297 4.29688C32.5504 4.00811 33.0444 4.03398 33.3331 4.35469C33.6218 4.67529 33.5959 5.16934 33.2753 5.45801L30.0804 8.33477C29.9311 8.46924 29.7442 8.53545 29.5578 8.53545C29.3443 8.53545 29.1314 8.44834 28.9771 8.27695ZM16.6681 4.35469C16.9568 4.03398 17.4507 4.00811 17.7715 4.29688L20.9664 7.17363C21.287 7.4623 21.3129 7.95635 21.0242 8.27695C20.87 8.44824 20.6571 8.53545 20.4434 8.53545C20.2572 8.53545 20.0702 8.46924 19.9208 8.33477L16.7259 5.45801C16.4052 5.16934 16.3794 4.67529 16.6681 4.35469ZM35.0235 12.9476L38.2495 15.5405L37.1637 19.5346C37.0418 19.983 37.206 20.4494 37.5823 20.723C37.9583 20.9961 38.4525 21.008 38.8416 20.7536L42.3046 18.4867L45.7677 20.7537C45.9544 20.8759 46.1653 20.9366 46.3757 20.9366C46.6038 20.9366 46.8315 20.8652 47.0269 20.723C47.4032 20.4499 47.5674 19.9834 47.4454 19.5346L46.3596 15.5406L49.5855 12.9478C49.948 12.6566 50.0894 12.1827 49.9456 11.7403C49.802 11.2979 49.409 10.9977 48.9448 10.9752L44.8107 10.7736L43.3416 6.9043C43.1767 6.46963 42.7696 6.18867 42.3046 6.18867C41.8396 6.18867 41.4324 6.46953 41.2675 6.9042L39.7985 10.7736L35.6647 10.9751C35.2 10.9976 34.8071 11.2979 34.6634 11.7403C34.5197 12.1826 34.6611 12.6565 35.0235 12.9476ZM40.1707 12.3198C40.6115 12.2983 40.9974 12.018 41.1538 11.6056L42.3045 8.5748L43.4551 11.6055C43.6116 12.018 43.9976 12.2983 44.4381 12.3197L47.6761 12.4776L45.1494 14.5084C44.8054 14.7848 44.6579 15.2385 44.7738 15.6641L45.6242 18.7924L42.9117 17.0167C42.7272 16.896 42.5158 16.8356 42.3043 16.8356C42.0928 16.8356 41.8813 16.8961 41.6968 17.0168L38.9845 18.7924L39.835 15.6643C39.9507 15.2388 39.8034 14.7852 39.4595 14.5086L36.9326 12.4776L40.1707 12.3198ZM0.415654 12.9476L3.64173 15.5405L2.55589 19.5346C2.43401 19.983 2.59817 20.4494 2.97444 20.723C3.35081 20.9961 3.84485 21.0081 4.23382 20.7536L7.69681 18.4867L11.1599 20.7537C11.3466 20.8759 11.5575 20.9366 11.7679 20.9366C11.996 20.9366 12.2237 20.8652 12.4191 20.723C12.7953 20.4499 12.9596 19.9834 12.8376 19.5346L11.7518 15.5406L14.9777 12.9478C15.34 12.6568 15.4815 12.183 15.3378 11.7398C15.1939 11.2978 14.8009 10.9976 14.3369 10.9751L10.2029 10.7735L8.73382 6.9043C8.56888 6.46963 8.16175 6.18867 7.69681 6.18867C7.23177 6.18867 6.82464 6.46953 6.6597 6.9042L5.19065 10.7736L1.05687 10.9751C0.592314 10.9976 0.199346 11.2979 0.0557908 11.7398C-0.0882521 12.1823 0.0530564 12.6564 0.415654 12.9476ZM5.56292 12.3198C6.00364 12.2983 6.38958 12.018 6.54603 11.6056L7.69671 8.5748L8.84729 11.6055C9.00384 12.018 9.38978 12.2983 9.8303 12.3197L13.0683 12.4776L10.5416 14.5084C10.1976 14.7848 10.0501 15.2385 10.1659 15.6641L11.0164 18.7924L8.30394 17.0167C8.11937 16.896 7.90794 16.8356 7.69651 16.8356C7.48499 16.8356 7.27347 16.8961 7.08899 17.0168L4.37669 18.7924L5.22718 15.6643C5.3429 15.2388 5.19563 14.7852 4.85169 14.5086L2.32483 12.4776L5.56292 12.3198ZM49.8777 41.4974C49.328 39.7222 48.2021 38.1282 46.7073 37.0089C45.9916 36.473 45.2123 36.0557 44.3903 35.7602C45.53 34.8656 46.2644 33.477 46.2644 31.919C46.2644 29.2271 44.0742 27.037 41.3824 27.037C38.6904 27.037 36.5002 29.2271 36.5002 31.919C36.5002 33.4751 37.2328 34.8624 38.3703 35.757C36.8458 36.3012 35.4952 37.2572 34.461 38.5455C33.9776 37.8692 33.42 37.2411 32.7931 36.6742C31.53 35.5319 30.0477 34.6931 28.4513 34.1973C30.1442 33.075 31.2633 31.1534 31.2633 28.9746C31.2633 25.5215 28.4538 22.7121 25.0007 22.7121C21.5476 22.7121 18.7381 25.5215 18.7381 28.9746C18.7381 31.1534 19.8572 33.075 21.55 34.1973C19.9535 34.693 18.4712 35.5319 17.2081 36.6742C16.5813 37.2411 16.0237 37.8692 15.5404 38.5454C14.5062 37.257 13.1556 36.301 11.631 35.7567C12.7684 34.8621 13.5011 33.4748 13.5011 31.9187C13.5011 29.2268 11.311 27.0367 8.61907 27.0367C5.92708 27.0367 3.73694 29.2268 3.73694 31.9187C3.73694 33.4766 4.47132 34.8653 5.61097 35.7599C4.7889 36.0554 4.0096 36.4728 3.29388 37.0086C1.79905 38.1278 0.673174 39.7219 0.123467 41.497C-0.130537 42.3169 0.0101854 43.149 0.519658 43.8402C1.02903 44.5312 1.78235 44.9117 2.64075 44.9117H13.4409V46.3217C13.4409 48.35 15.0909 50.0001 17.1193 50.0001H32.882C34.9102 50.0001 36.5604 48.35 36.5605 46.3217V44.9121H47.3605C48.219 44.9121 48.9723 44.5315 49.4816 43.8406C49.9909 43.1494 50.1317 42.3172 49.8777 41.4974ZM41.3824 28.5995C43.2127 28.5995 44.7019 30.0887 44.7019 31.919C44.7019 33.7495 43.2127 35.2387 41.3824 35.2387C39.5519 35.2387 38.0627 33.7495 38.0627 31.919C38.0627 30.0887 39.5519 28.5995 41.3824 28.5995ZM20.3006 28.9746C20.3006 26.383 22.4091 24.2746 25.0007 24.2746C27.5923 24.2746 29.7008 26.383 29.7008 28.9746C29.7008 31.5654 27.5937 33.6732 25.0033 33.6746C25.0024 33.6746 25.0014 33.6746 25.0006 33.6746C24.9998 33.6746 24.999 33.6746 24.9981 33.6746C22.4076 33.6731 20.3006 31.5653 20.3006 28.9746ZM8.61907 28.5991C10.4494 28.5991 11.9386 30.0883 11.9386 31.9187C11.9386 33.7491 10.4494 35.2383 8.61907 35.2383C6.7886 35.2383 5.29944 33.7491 5.29944 31.9187C5.29944 30.0883 6.7886 28.5991 8.61907 28.5991ZM13.5423 43.3491H2.64085C2.28128 43.3491 1.99085 43.2024 1.77747 42.913C1.56399 42.6235 1.50979 42.3026 1.61614 41.9592C2.57161 38.8737 5.38597 36.8008 8.61907 36.8008C11.0647 36.8008 13.2925 37.9824 14.6627 39.9827C14.121 41.0351 13.7416 42.1693 13.5423 43.3491ZM34.998 46.3216C34.9979 47.4883 34.0487 48.4375 32.882 48.4375H17.1193C15.9526 48.4375 15.0034 47.4883 15.0034 46.3216V44.1729C15.569 39.0764 19.8584 35.2384 24.9981 35.2371C24.999 35.2371 24.9998 35.2372 25.0007 35.2372C25.0016 35.2372 25.0025 35.2371 25.0033 35.2371C30.1428 35.2385 34.4322 39.0764 34.998 44.1729V46.3216ZM48.2239 42.9135C48.0105 43.2028 47.7201 43.3495 47.3605 43.3495H36.4591C36.2597 42.1696 35.8803 41.0354 35.3387 39.9829C36.709 37.9827 38.9367 36.8012 41.3823 36.8012C44.6154 36.8012 47.4297 38.8742 48.3852 41.9597C48.4915 42.3029 48.4372 42.6238 48.2239 42.9135Z" fill="#1DA8A3"/>
</g>
<defs>
<clipPath id="clip0_1659_37123">
<rect width="50" height="50" fill="white"/>
</clipPath>
</defs>
</svg>
