<svg width="50" height="50" viewBox="0 0 50 50" fill="none" xmlns="http://www.w3.org/2000/svg">
<path d="M42.1539 31.5533L33.6539 35.1442C33.669 35.0381 33.6842 34.9321 33.6842 34.8184C33.6842 33.1669 32.3433 31.826 30.6918 31.826H24.5705C24.3205 31.826 24.0781 31.773 23.8509 31.6669L18.6615 29.3184C17.8509 28.9548 16.9493 28.7578 16.063 28.7578H11.8357V30.273H16.063C16.7372 30.273 17.419 30.4169 18.0402 30.6972L23.2296 33.0457C23.6539 33.2351 24.1084 33.3336 24.5781 33.3336H30.6993C31.5175 33.3336 32.1766 34.0002 32.1766 34.8108C32.1766 35.6215 31.5099 36.2881 30.6993 36.2881H22.7675V37.8033H30.6918C31.2145 37.8033 31.6993 37.6593 32.1236 37.4245V37.4321L42.7372 32.9396C43.616 32.5684 44.5781 32.576 45.4493 32.9548C46.116 33.2502 46.6615 33.7275 47.0251 34.3487L28.2902 44.2881C26.8584 45.0457 25.1539 45.1972 23.6084 44.7048L14.4418 41.7578L11.8281 41.7199V43.2351H14.0933L23.1463 46.1442C23.8963 46.3866 24.669 46.5002 25.4493 46.5002C26.6766 46.5002 27.9039 46.2048 28.9948 45.6215L48.9569 35.0457L48.7372 34.4245C48.2751 33.1366 47.3206 32.1214 46.063 31.5684C44.8054 31.0305 43.419 31.0154 42.1539 31.5533Z" fill="#1DA8A3"/>
<path d="M10.1908 44.4227V28.3394C10.1908 27.506 9.509 26.8242 8.67566 26.8242H1.04688V28.3394H8.67566V44.4303H1.04688V45.9454H8.67566C9.509 45.9379 10.1908 45.256 10.1908 44.4227Z" fill="#1DA8A3"/>
<path d="M6.68347 42.0682C6.68347 42.6515 6.2062 43.1288 5.62287 43.1288C5.03196 43.1288 4.55469 42.6515 4.55469 42.0682C4.55469 41.4773 5.03196 41 5.62287 41C6.2062 41 6.68347 41.4773 6.68347 42.0682Z" fill="#1DA8A3"/>
<path d="M18.969 21.5381L19.7872 22.1442L25.4235 19.023L30.522 22.0911L30.9614 22.3487L31.7796 21.7578L30.5523 15.4396L35.0599 11.5305L35.4235 11.1821L35.1054 10.2427L28.7266 9.45478L26.4084 3.96993L26.1963 3.51539L25.7114 3.50781H25.1963L22.4766 9.34872L16.5372 9.84872L16.0296 9.90933L15.7266 10.8563L20.4311 15.2427L18.969 21.5381ZM18.325 11.2199L23.0372 10.8108L23.4841 10.7578L25.6584 6.09115L27.4993 10.4321L27.6887 10.8487L32.8099 11.4775L29.2644 14.5533L28.9084 14.8563L29.8932 19.9321L25.8326 17.4851L25.4463 17.2805L20.9538 19.773L22.0069 15.2275L22.1357 14.7578L18.325 11.2199Z" fill="#1DA8A3"/>
<path d="M9.009 18.7444L7.91051 23.4641L7.759 24.0096L8.61506 24.6384L13.3348 22.0247L17.5014 24.5247L17.9711 24.8202L18.812 24.2066L17.7817 18.9111L18.8802 17.9641L17.8878 16.8202L16.4257 18.0853L16.206 18.3429V18.646L16.9181 22.4111L13.8423 20.555L13.6832 20.4035L13.0393 20.3884L12.8878 20.5399L9.74384 22.2823L10.5923 18.6005V18.1535L7.64536 15.4111L11.2514 15.0929L11.5999 15.0853L11.9181 14.7672L13.5317 11.2975L14.9863 14.7293L15.2211 15.1763H15.6454L17.4711 15.4035L17.6605 13.896L16.1984 13.7217L14.2741 9.17625L14.0166 8.69141L12.9711 8.77474L12.8272 9.22171L10.7817 13.6232L5.96354 14.0399L5.36506 14.0702L5.04688 15.1763L5.46354 15.449L9.009 18.7444Z" fill="#1DA8A3"/>
<path d="M33.9126 13.7188L34.049 15.2263L35.5111 15.09L35.852 15.0748L36.1702 14.7566L37.7839 11.2869L39.1702 14.5521L39.1854 15.1657H39.8975L43.5111 15.6127L40.7005 18.0521L40.4505 18.3172V18.643L41.1702 22.4006L38.0869 20.5521L37.9278 20.393L37.2611 20.4006L37.1248 20.5445L33.996 22.2794L34.852 18.5975L34.8445 18.1506L32.9051 16.34L31.8672 17.446L33.2535 18.7415L32.1626 23.4612L32.0111 23.9688L32.8369 24.6506L37.5869 22.0218L41.7611 24.5294L42.2308 24.8172L43.0566 24.196L42.0263 18.9081L45.6702 15.7491C45.9202 15.5521 46.0263 15.2188 45.9429 14.9157L45.7687 14.3778L40.4505 13.7263L38.5111 9.16572L38.2839 8.74905L37.3823 8.71875L37.1475 9.08996L35.0263 13.6203L33.9126 13.7188Z" fill="#1DA8A3"/>
</svg>
