<svg width="159" height="53" viewBox="0 0 159 53" fill="none" xmlns="http://www.w3.org/2000/svg">
<path fill-rule="evenodd" clip-rule="evenodd" d="M2.77738 18.7241C4.70928 16.6765 7.42022 15.513 10.2594 15.513H18.7312C23.0951 15.513 27.3374 16.9283 30.8019 19.5399L31.1019 19.7661C32.9288 21.1433 34.4688 22.8541 35.6378 24.8049C37.2632 27.5174 38.1205 30.6089 38.1205 33.758V43.2154C38.1205 45.9022 36.9979 48.4707 35.0161 50.3186C31.2866 53.7959 25.4794 53.9039 21.619 50.5679L21.5267 50.4881C19.3478 48.6052 18.0986 45.8898 18.0986 43.036V35.4891H10.0838C7.40938 35.4891 4.84454 34.4436 2.95347 32.5824C-0.881783 28.8078 -0.996223 22.7237 2.69445 18.812L2.77738 18.7241ZM6.04502 21.874L6.12795 21.7861C7.19471 20.6554 8.69164 20.013 10.2594 20.013H18.7312C22.09 20.013 25.3551 21.1023 28.0215 23.1124L28.3216 23.3385C29.682 24.3641 30.8289 25.6381 31.6994 27.0908C32.9098 29.1107 33.5481 31.4129 33.5481 33.758V43.2154C33.5481 44.6665 32.9419 46.0538 31.8715 47.0518C29.8572 48.9298 26.7208 48.9882 24.6358 47.1865L24.5435 47.1067C23.3533 46.0781 22.6709 44.5948 22.6709 43.036V33.6124C22.6709 32.1636 21.4776 30.9891 20.0055 30.9891H10.0838C8.62203 30.9891 7.22018 30.4177 6.18659 29.4004C4.09037 27.3374 4.02782 24.012 6.04502 21.874Z" fill="white"/>
<path fill-rule="evenodd" clip-rule="evenodd" d="M53.3869 34.2218L53.304 34.3097C51.3721 36.3573 48.6611 37.5208 45.822 37.5208H37.3502C32.9862 37.5208 28.7439 36.1055 25.2795 33.4939L28.0598 29.9214C30.7263 31.9315 33.9914 33.0208 37.3502 33.0208H45.822C47.3897 33.0208 48.8867 32.3783 49.9534 31.2477L50.0364 31.1598C52.0536 29.0218 51.991 25.6964 49.8948 23.6334C48.8612 22.6161 47.4593 22.0446 45.9976 22.0446H36.0758C34.6038 22.0446 33.4104 20.8702 33.4104 19.4214V9.9978C33.4104 8.43894 32.7281 6.95565 31.5379 5.92712L31.4455 5.84731C29.3606 4.04555 26.2241 4.10394 24.2099 5.982C23.1395 6.97999 22.5332 8.36724 22.5332 9.81834V19.2758C22.5332 21.6209 23.1716 23.923 24.382 25.943C25.2525 27.3957 26.3994 28.6697 27.7598 29.6952L28.0598 29.9214L25.2795 33.4939L24.9795 33.2677C23.1526 31.8905 21.6125 30.1797 20.4436 28.2289C18.8182 25.5164 17.9609 22.4249 17.9609 19.2758V9.81834C17.9609 7.13157 19.0835 4.56303 21.0653 2.71522C24.7948 -0.762069 30.6019 -0.870174 34.4624 2.46584L34.5547 2.54564C36.7336 4.42856 37.9827 7.14404 37.9827 9.9978V17.5446H45.9976C48.672 17.5446 51.2368 18.5902 53.1279 20.4514C56.9632 24.226 57.0776 30.3101 53.3869 34.2218Z" fill="white"/>
<path d="M33.548 32.4783L37.9832 33.0703V37.8063H33.548V32.4783Z" fill="white"/>
<path d="M60.6496 15.1785C60.6496 12.8347 61.1648 10.75 62.1953 8.92455C63.2257 7.07653 64.6569 5.64545 66.4888 4.6313C68.3437 3.59461 70.4389 3.07626 72.7746 3.07626C75.637 3.07626 78.0872 3.81998 80.1252 5.3074C82.1632 6.79482 83.5257 8.82313 84.2126 11.3923H77.7551C77.2743 10.4007 76.5873 9.64572 75.6942 9.12737C74.8241 8.60903 73.828 8.34986 72.7059 8.34986C70.8969 8.34986 69.4314 8.96962 68.3093 10.2091C67.1873 11.4487 66.6262 13.1051 66.6262 15.1785C66.6262 17.2519 67.1873 18.9083 68.3093 20.1478C69.4314 21.3874 70.8969 22.0071 72.7059 22.0071C73.828 22.0071 74.8241 21.7479 75.6942 21.2296C76.5873 20.7113 77.2743 19.9563 77.7551 18.9647H84.2126C83.5257 21.5338 82.1632 23.5621 80.1252 25.0496C78.0872 26.5145 75.637 27.2469 72.7746 27.2469C70.4389 27.2469 68.3437 26.7398 66.4888 25.7257C64.6569 24.689 63.2257 23.2579 62.1953 21.4324C61.1648 19.607 60.6496 17.5223 60.6496 15.1785Z" fill="white"/>
<path d="M93.6832 2.06211V27.0779H87.8096V2.06211H93.6832Z" fill="white"/>
<path d="M100.894 6.25394C99.8632 6.25394 99.0159 5.96096 98.3519 5.37501C97.7107 4.76652 97.3901 4.02281 97.3901 3.14387C97.3901 2.24241 97.7107 1.49869 98.3519 0.912738C99.0159 0.304246 99.8632 0 100.894 0C101.901 0 102.726 0.304246 103.367 0.912738C104.031 1.49869 104.363 2.24241 104.363 3.14387C104.363 4.02281 104.031 4.76652 103.367 5.37501C102.726 5.96096 101.901 6.25394 100.894 6.25394ZM103.813 8.21464V27.0779H97.9397V8.21464H103.813Z" fill="white"/>
<path d="M119.748 8.01181C121.992 8.01181 123.779 8.73298 125.107 10.1753C126.458 11.5951 127.133 13.5558 127.133 16.0574V27.0779H121.294V16.8349C121.294 15.5729 120.962 14.5925 120.298 13.8939C119.634 13.1953 118.741 12.8459 117.619 12.8459C116.497 12.8459 115.604 13.1953 114.939 13.8939C114.275 14.5925 113.943 15.5729 113.943 16.8349V27.0779H108.07V8.21464H113.943V10.7162C114.539 9.88235 115.34 9.22879 116.348 8.75552C117.355 8.25971 118.489 8.01181 119.748 8.01181Z" fill="white"/>
<path d="M134.169 6.25394C133.138 6.25394 132.291 5.96096 131.627 5.37501C130.986 4.76652 130.665 4.02281 130.665 3.14387C130.665 2.24241 130.986 1.49869 131.627 0.912738C132.291 0.304246 133.138 0 134.169 0C135.176 0 136.001 0.304246 136.642 0.912738C137.306 1.49869 137.638 2.24241 137.638 3.14387C137.638 4.02281 137.306 4.76652 136.642 5.37501C136.001 5.96096 135.176 6.25394 134.169 6.25394ZM137.088 8.21464V27.0779H131.215V8.21464H137.088Z" fill="white"/>
<path d="M140.177 17.6463C140.177 15.6856 140.578 13.9728 141.379 12.5079C142.204 11.043 143.337 9.91616 144.78 9.12737C146.245 8.33859 147.917 7.9442 149.795 7.9442C152.199 7.9442 154.203 8.56396 155.806 9.80348C157.431 11.043 158.496 12.7896 159 15.0433H152.749C152.222 13.6009 151.203 12.8797 149.692 12.8797C148.615 12.8797 147.757 13.2967 147.115 14.1305C146.474 14.9418 146.154 16.1138 146.154 17.6463C146.154 19.1788 146.474 20.3619 147.115 21.1958C147.757 22.0071 148.615 22.4128 149.692 22.4128C151.203 22.4128 152.222 21.6916 152.749 20.2492H159C158.496 22.4578 157.431 24.1932 155.806 25.4552C154.18 26.7173 152.176 27.3483 149.795 27.3483C147.917 27.3483 146.245 26.9539 144.78 26.1651C143.337 25.3764 142.204 24.2495 141.379 22.7846C140.578 21.3197 140.177 19.607 140.177 17.6463Z" fill="white"/>
<path d="M80.5418 33.2642V47.3609H78.1924V37.7062L73.8232 47.3609H72.1951L67.8054 37.7062V47.3609H65.456V33.2642H67.9909L73.0195 44.3185L78.0275 33.2642H80.5418Z" fill="white"/>
<path d="M82.8466 41.7222C82.8466 40.5999 83.0802 39.606 83.5474 38.7406C84.0282 37.8752 84.674 37.2059 85.4846 36.7326C86.309 36.2458 87.2158 36.0024 88.205 36.0024C89.0981 36.0024 89.8743 36.1782 90.5338 36.5298C91.2071 36.8678 91.7429 37.2938 92.1413 37.8076V36.185H94.5114V47.3609H92.1413V45.6977C91.7429 46.2251 91.2002 46.6645 90.5132 47.0161C89.8263 47.3677 89.0431 47.5435 88.1638 47.5435C87.1883 47.5435 86.2952 47.3001 85.4846 46.8133C84.674 46.313 84.0282 45.6233 83.5474 44.7444C83.0802 43.852 82.8466 42.8446 82.8466 41.7222ZM92.1413 41.7628C92.1413 40.9921 91.9765 40.3227 91.6467 39.7548C91.3307 39.1869 90.9117 38.7542 90.3896 38.4567C89.8675 38.1592 89.3042 38.0104 88.6996 38.0104C88.0951 38.0104 87.5318 38.1592 87.0097 38.4567C86.4876 38.7406 86.0617 39.1666 85.7319 39.7345C85.4159 40.2889 85.2579 40.9515 85.2579 41.7222C85.2579 42.493 85.4159 43.1691 85.7319 43.7505C86.0617 44.332 86.4876 44.7782 87.0097 45.0892C87.5455 45.3867 88.1088 45.5355 88.6996 45.5355C89.3042 45.5355 89.8675 45.3867 90.3896 45.0892C90.9117 44.7917 91.3307 44.359 91.6467 43.7911C91.9765 43.2097 92.1413 42.5336 92.1413 41.7628Z" fill="white"/>
<path d="M101.719 47.5435C100.826 47.5435 100.022 47.388 99.3078 47.077C98.6071 46.7524 98.0507 46.3197 97.6385 45.7789C97.2263 45.2244 97.0065 44.6092 96.979 43.9331H99.4109C99.4521 44.4064 99.6788 44.8053 100.091 45.1298C100.517 45.4408 101.046 45.5963 101.678 45.5963C102.337 45.5963 102.846 45.4746 103.203 45.2312C103.574 44.9743 103.759 44.6498 103.759 44.2576C103.759 43.8384 103.553 43.5274 103.141 43.3246C102.743 43.1218 102.104 42.8987 101.224 42.6553C100.373 42.4254 99.6788 42.2023 99.143 41.9859C98.6071 41.7696 98.14 41.4383 97.7415 40.9921C97.3568 40.5458 97.1645 39.9576 97.1645 39.2274C97.1645 38.6325 97.3431 38.0916 97.7003 37.6048C98.0575 37.1045 98.5659 36.7123 99.2254 36.4284C99.8986 36.1444 100.668 36.0024 101.534 36.0024C102.825 36.0024 103.862 36.327 104.646 36.976C105.442 37.6115 105.868 38.4837 105.923 39.5925H103.574C103.533 39.0922 103.327 38.6933 102.956 38.3958C102.585 38.0983 102.083 37.9496 101.451 37.9496C100.833 37.9496 100.359 38.0645 100.029 38.2944C99.6994 38.5243 99.5345 38.8285 99.5345 39.2071C99.5345 39.5046 99.6444 39.7548 99.8643 39.9576C100.084 40.1604 100.352 40.3227 100.668 40.4444C100.984 40.5526 101.451 40.6946 102.069 40.8703C102.894 41.0867 103.567 41.3098 104.089 41.5397C104.625 41.756 105.085 42.0806 105.47 42.5133C105.855 42.946 106.054 43.5207 106.068 44.2373C106.068 44.8729 105.889 45.4408 105.532 45.9411C105.175 46.4414 104.666 46.8336 104.007 47.1175C103.361 47.4015 102.598 47.5435 101.719 47.5435Z" fill="white"/>
<path d="M111.347 38.0713V44.2576C111.347 44.6768 111.443 44.981 111.636 45.1704C111.842 45.3461 112.185 45.434 112.666 45.434H114.109V47.3609H112.254C111.196 47.3609 110.385 47.1175 109.822 46.6307C109.259 46.1439 108.977 45.3529 108.977 44.2576V38.0713H107.638V36.185H108.977V33.4062H111.347V36.185H114.109V38.0713H111.347Z" fill="white"/>
<path d="M126.682 41.4991C126.682 41.9183 126.654 42.2969 126.599 42.635H117.923C117.992 43.5274 118.328 44.2441 118.933 44.785C119.537 45.3259 120.279 45.5963 121.159 45.5963C122.423 45.5963 123.316 45.0757 123.838 44.0345H126.373C126.029 45.0622 125.404 45.9073 124.497 46.5699C123.604 47.2189 122.491 47.5435 121.159 47.5435C120.073 47.5435 119.098 47.3068 118.232 46.8336C117.38 46.3468 116.707 45.6707 116.212 44.8053C115.732 43.9263 115.491 42.9122 115.491 41.7628C115.491 40.6134 115.725 39.606 116.192 38.7406C116.673 37.8617 117.339 37.1856 118.191 36.7123C119.056 36.2391 120.046 36.0024 121.159 36.0024C122.23 36.0024 123.185 36.2323 124.023 36.692C124.861 37.1518 125.514 37.8008 125.981 38.6392C126.448 39.4641 126.682 40.4174 126.682 41.4991ZM124.229 40.7689C124.216 39.917 123.906 39.2342 123.302 38.7203C122.697 38.2065 121.949 37.9496 121.056 37.9496C120.245 37.9496 119.551 38.2065 118.974 38.7203C118.397 39.2207 118.054 39.9035 117.944 40.7689H124.229Z" fill="white"/>
<path d="M131.343 37.8076C131.687 37.2397 132.14 36.8002 132.704 36.4892C133.281 36.1647 133.961 36.0024 134.744 36.0024V38.3958H134.146C133.226 38.3958 132.525 38.6257 132.044 39.0854C131.577 39.5452 131.343 40.343 131.343 41.4788V47.3609H128.994V36.185H131.343V37.8076Z" fill="white"/>
</svg>
